<svg width="2604" height="500" viewBox="0 0 2604 500" fill="none" xmlns="http://www.w3.org/2000/svg">
<path d="M527.808 120V28.48H544.832L586.048 97.216H586.304V28.48H601.536V120H584.64L543.296 51.52H543.04V120H527.808ZM671.056 98.368H633.68L626.256 120H610.768L644.432 28.48H660.432L693.968 120H678.48L671.056 98.368ZM637.904 85.696H666.96L652.624 42.432H652.368L637.904 85.696ZM716.247 120V41.408H686.935V28.48H760.663V41.408H731.479V120H716.247ZM842.97 88.768C842.97 108.736 832.346 121.92 806.874 121.92C781.402 121.92 770.778 108.736 770.778 88.768V28.48H786.01V88.768C786.01 102.592 792.922 108.864 806.874 108.864C820.954 108.864 827.866 102.592 827.866 88.768V28.48H842.97V88.768ZM858.433 120V28.48H897.473C916.289 28.48 928.449 38.08 928.449 54.72C928.449 67.52 921.921 74.944 911.425 77.504V77.76C932.545 81.728 924.865 117.568 929.729 119.104V120H913.729C909.505 116.16 918.081 84.672 896.065 84.672H873.665V120H858.433ZM873.665 41.408V71.616H894.273C903.617 71.616 913.345 69.824 913.345 56.512C913.345 43.328 903.617 41.408 894.273 41.408H873.665ZM957.165 66.24H1001.84V79.296H957.165V107.072H1009.39V120H941.933V28.48H1008.11V41.408H957.165V66.24Z" fill="#F5F5F5"/>
<path d="M1670.8 51.52C1670.8 62.784 1664.14 68.032 1656.59 70.592V70.848C1666.19 72.512 1674.38 79.552 1674.38 93.248C1674.38 110.912 1662.22 120 1643.28 120H1601.81V28.48H1641.1C1659.92 28.48 1670.8 36.8 1670.8 51.52ZM1617.04 66.368H1640.59C1651.47 66.368 1655.57 62.016 1655.57 53.952C1655.57 45.888 1650.58 41.408 1641.49 41.408H1617.04V66.368ZM1617.04 77.76V107.072H1642.13C1655.18 107.072 1659.15 100.928 1659.15 92.352C1659.15 83.008 1653.39 77.76 1643.79 77.76H1617.04ZM1701.67 66.24H1746.34V79.296H1701.67V107.072H1753.89V120H1686.43V28.48H1752.61V41.408H1701.67V66.24ZM1821.56 98.368H1784.18L1776.76 120H1761.27L1794.93 28.48H1810.93L1844.47 120H1828.98L1821.56 98.368ZM1788.4 85.696H1817.46L1803.12 42.432H1802.87L1788.4 85.696ZM1922.6 88.768C1922.6 108.736 1911.97 121.92 1886.5 121.92C1861.03 121.92 1850.4 108.736 1850.4 88.768V28.48H1865.64V88.768C1865.64 102.592 1872.55 108.864 1886.5 108.864C1900.58 108.864 1907.49 102.592 1907.49 88.768V28.48H1922.6V88.768ZM1962.12 120V41.408H1932.81V28.48H2006.54V41.408H1977.35V120H1962.12ZM2018.19 28.48H2033.42V120H2018.19V28.48ZM2065.42 68.032H2104.97V81.088H2065.42V120H2050.18V28.48H2114.18V41.408H2065.42V68.032ZM2197.1 88.768C2197.1 108.736 2186.47 121.92 2161 121.92C2135.53 121.92 2124.9 108.736 2124.9 88.768V28.48H2140.14V88.768C2140.14 102.592 2147.05 108.864 2161 108.864C2175.08 108.864 2181.99 102.592 2181.99 88.768V28.48H2197.1V88.768ZM2212.56 28.48H2227.79V107.072H2273.49V120H2212.56V28.48Z" fill="#F5F5F5"/>
<path d="M843.808 206.48H859.04V285.072H904.736V298H843.808V206.48ZM952.655 299.92C925.007 299.92 907.727 279.696 907.727 252.176C907.727 224.656 925.007 204.56 952.655 204.56C980.175 204.56 997.583 224.656 997.583 252.176C997.583 279.696 980.175 299.92 952.655 299.92ZM952.655 286.864C973.647 286.864 982.351 270.736 982.351 252.176C982.351 233.744 973.647 217.616 952.655 217.616C931.663 217.616 922.831 233.744 922.831 252.176C922.831 270.736 931.663 286.864 952.655 286.864ZM999.143 206.48H1015.27L1038.57 281.36H1038.7L1061.99 206.48H1078.12L1046.89 298H1030.38L999.143 206.48ZM1102.92 244.24H1147.59V257.296H1102.92V285.072H1155.14V298H1087.68V206.48H1153.86V219.408H1102.92V244.24ZM1168.56 298V206.48H1207.6C1226.41 206.48 1238.57 216.08 1238.57 232.72C1238.57 245.52 1232.05 252.944 1221.55 255.504V255.76C1242.67 259.728 1234.99 295.568 1239.85 297.104V298H1223.85C1219.63 294.16 1228.21 262.672 1206.19 262.672H1183.79V298H1168.56ZM1183.79 219.408V249.616H1204.4C1213.74 249.616 1223.47 247.824 1223.47 234.512C1223.47 221.328 1213.74 219.408 1204.4 219.408H1183.79Z" fill="#F5F5F5"/>
<path d="M1231.55 415.968C1229.89 406.752 1223.87 395.616 1206.98 395.616C1187.26 395.616 1179.46 412.128 1179.46 430.176C1179.46 448.352 1187.26 464.864 1206.98 464.864C1224 464.864 1230.53 453.728 1231.55 442.592H1246.78C1244.74 463.2 1230.66 477.92 1207.36 477.92C1180.99 477.92 1164.35 457.824 1164.35 430.176C1164.35 402.656 1180.99 382.56 1207.36 382.56C1230.53 382.56 1244.61 397.28 1246.78 415.968H1231.55ZM1259.06 476V384.48H1298.1C1316.91 384.48 1329.07 394.08 1329.07 410.72C1329.07 423.52 1322.55 430.944 1312.05 433.504V433.76C1333.17 437.728 1325.49 473.568 1330.35 475.104V476H1314.35C1310.13 472.16 1318.71 440.672 1296.69 440.672H1274.29V476H1259.06ZM1274.29 397.408V427.616H1294.9C1304.24 427.616 1313.97 425.824 1313.97 412.512C1313.97 399.328 1304.24 397.408 1294.9 397.408H1274.29ZM1357.79 422.24H1402.46V435.296H1357.79V463.072H1410.01V476H1342.56V384.48H1408.73V397.408H1357.79V422.24ZM1477.68 454.368H1440.31L1432.88 476H1417.39L1451.06 384.48H1467.06L1500.59 476H1485.11L1477.68 454.368ZM1444.53 441.696H1473.59L1459.25 398.432H1458.99L1444.53 441.696ZM1522.87 476V397.408H1493.56V384.48H1567.29V397.408H1538.1V476H1522.87ZM1578.94 384.48H1594.17V476H1578.94V384.48ZM1603.89 384.48H1620.02L1643.32 459.36H1643.45L1666.74 384.48H1682.87L1651.64 476H1635.12L1603.89 384.48ZM1707.67 422.24H1752.34V435.296H1707.67V463.072H1759.89V476H1692.43V384.48H1758.61V397.408H1707.67V422.24Z" fill="#F5F5F5"/>
<path d="M1853.04 244.24H1897.71V257.296H1853.04V285.072H1905.26V298H1837.81V206.48H1903.98V219.408H1853.04V244.24ZM1918.68 298V206.48H1935.71L1976.92 275.216H1977.18V206.48H1992.41V298H1975.51L1934.17 229.52H1933.92V298H1918.68ZM2030.25 298V219.408H2000.94V206.48H2074.66V219.408H2045.48V298H2030.25ZM2086.06 206.48H2101.29V244.368H2144.55V206.48H2159.79V298H2144.55V257.424H2101.29V298H2086.06V206.48ZM2247.35 266.768C2247.35 286.736 2236.72 299.92 2211.25 299.92C2185.78 299.92 2175.15 286.736 2175.15 266.768V206.48H2190.39V266.768C2190.39 280.592 2197.3 286.864 2211.25 286.864C2225.33 286.864 2232.24 280.592 2232.24 266.768V206.48H2247.35V266.768ZM2298.5 243.472C2318.08 248.464 2332.93 252.688 2332.93 273.168C2332.93 287.76 2321.92 299.92 2298.88 299.92C2276.48 299.92 2259.46 288.272 2258.56 267.536H2273.79C2274.56 279.184 2282.5 286.864 2298.88 286.864C2312.45 286.864 2317.7 280.848 2317.7 273.808C2317.7 262.928 2309.89 260.88 2291.84 256.4C2277.5 252.816 2262.02 247.312 2262.02 229.904C2262.02 213.648 2274.56 204.56 2294.53 204.56C2314.62 204.56 2329.22 215.056 2330.5 233.872H2315.26C2313.86 223.248 2307.2 217.616 2294.53 217.616C2283.65 217.616 2277.12 221.712 2277.12 228.496C2277.12 238.48 2285.7 240.272 2298.5 243.472ZM2346.06 206.48H2361.3V298H2346.06V206.48ZM2430.93 276.368H2393.56L2386.13 298H2370.64L2404.31 206.48H2420.31L2453.84 298H2438.36L2430.93 276.368ZM2397.78 263.696H2426.84L2412.5 220.432H2412.24L2397.78 263.696ZM2476.12 298V219.408H2446.81V206.48H2520.54V219.408H2491.35V298H2476.12ZM2565 243.472C2584.58 248.464 2599.43 252.688 2599.43 273.168C2599.43 287.76 2588.42 299.92 2565.38 299.92C2542.98 299.92 2525.96 288.272 2525.06 267.536H2540.29C2541.06 279.184 2549 286.864 2565.38 286.864C2578.95 286.864 2584.2 280.848 2584.2 273.808C2584.2 262.928 2576.39 260.88 2558.34 256.4C2544 252.816 2528.52 247.312 2528.52 229.904C2528.52 213.648 2541.06 204.56 2561.03 204.56C2581.12 204.56 2595.72 215.056 2597 233.872H2581.76C2580.36 223.248 2573.7 217.616 2561.03 217.616C2550.15 217.616 2543.62 221.712 2543.62 228.496C2543.62 238.48 2552.2 240.272 2565 243.472Z" fill="#F5F5F5"/>
<path d="M23.04 423.032H62.592V436.088H23.04V475H7.808V383.48H71.808V396.408H23.04V423.032ZM83.808 475V383.48H122.848C141.664 383.48 153.824 393.08 153.824 409.72C153.824 422.52 147.296 429.944 136.8 432.504V432.76C157.92 436.728 150.24 472.568 155.104 474.104V475H139.104C134.88 471.16 143.456 439.672 121.44 439.672H99.04V475H83.808ZM99.04 396.408V426.616H119.648C128.992 426.616 138.72 424.824 138.72 411.512C138.72 398.328 128.992 396.408 119.648 396.408H99.04ZM182.54 421.24H227.212V434.296H182.54V462.072H234.764V475H167.308V383.48H233.484V396.408H182.54V421.24ZM263.415 421.24H308.087V434.296H263.415V462.072H315.639V475H248.183V383.48H314.359V396.408H263.415V421.24ZM329.058 475V383.48H364.642C389.858 383.48 405.346 399.864 405.346 429.304C405.346 458.744 390.37 475 365.026 475H329.058ZM344.29 396.408V462.072H363.874C384.354 462.072 390.114 446.84 390.114 429.304C390.114 411.768 384.354 396.408 363.874 396.408H344.29ZM460.03 476.92C432.382 476.92 415.102 456.696 415.102 429.176C415.102 401.656 432.382 381.56 460.03 381.56C487.55 381.56 504.958 401.656 504.958 429.176C504.958 456.696 487.55 476.92 460.03 476.92ZM460.03 463.864C481.022 463.864 489.726 447.736 489.726 429.176C489.726 410.744 481.022 394.616 460.03 394.616C439.038 394.616 430.206 410.744 430.206 429.176C430.206 447.736 439.038 463.864 460.03 463.864ZM518.058 475V383.48H537.77L563.37 453.88H563.626L589.098 383.48H608.81V475H593.962V405.624H593.706L569.514 475H557.354L533.162 405.624H532.906V475H518.058Z" fill="#F5F5F5"/>
</svg>
