<svg width="2604" height="500" viewBox="0 0 2604 500" fill="none" xmlns="http://www.w3.org/2000/svg">
<path d="M527.808 120H525.808V122H527.808V120ZM527.808 28.48V26.48H525.808V28.48H527.808ZM544.832 28.48L546.547 27.4515L545.965 26.48H544.832V28.48ZM586.048 97.216L584.333 98.2445L584.915 99.216H586.048V97.216ZM586.304 97.216V99.216H588.304V97.216H586.304ZM586.304 28.48V26.48H584.304V28.48H586.304ZM601.536 28.48H603.536V26.48H601.536V28.48ZM601.536 120V122H603.536V120H601.536ZM584.64 120L582.928 121.034L583.511 122H584.64V120ZM543.296 51.52L545.008 50.4863L544.425 49.52H543.296V51.52ZM543.04 51.52V49.52H541.04V51.52H543.04ZM543.04 120V122H545.04V120H543.04ZM529.808 120V28.48H525.808V120H529.808ZM527.808 30.48H544.832V26.48H527.808V30.48ZM543.117 29.5085L584.333 98.2445L587.763 96.1875L546.547 27.4515L543.117 29.5085ZM586.048 99.216H586.304V95.216H586.048V99.216ZM588.304 97.216V28.48H584.304V97.216H588.304ZM586.304 30.48H601.536V26.48H586.304V30.48ZM599.536 28.48V120H603.536V28.48H599.536ZM601.536 118H584.64V122H601.536V118ZM586.352 118.966L545.008 50.4863L541.584 52.5537L582.928 121.034L586.352 118.966ZM543.296 49.52H543.04V53.52H543.296V49.52ZM541.04 51.52V120H545.04V51.52H541.04ZM543.04 118H527.808V122H543.04V118ZM671.056 98.368L672.948 97.7188L672.484 96.368H671.056V98.368ZM633.68 98.368V96.368H632.252L631.788 97.7188L633.68 98.368ZM626.256 120V122H627.684L628.148 120.649L626.256 120ZM610.768 120L608.891 119.31L607.901 122H610.768V120ZM644.432 28.48V26.48H643.037L642.555 27.7896L644.432 28.48ZM660.432 28.48L662.31 27.7919L661.829 26.48H660.432V28.48ZM693.968 120V122H696.831L695.846 119.312L693.968 120ZM678.48 120L676.588 120.649L677.052 122H678.48V120ZM637.904 85.696L636.007 85.0619L635.127 87.696H637.904V85.696ZM666.96 85.696V87.696H669.73L668.858 85.0669L666.96 85.696ZM652.624 42.432L654.522 41.8029L654.068 40.432H652.624V42.432ZM652.368 42.432V40.432H650.928L650.471 41.7979L652.368 42.432ZM671.056 96.368H633.68V100.368H671.056V96.368ZM631.788 97.7188L624.364 119.351L628.148 120.649L635.572 99.0172L631.788 97.7188ZM626.256 118H610.768V122H626.256V118ZM612.645 120.69L646.309 29.1704L642.555 27.7896L608.891 119.31L612.645 120.69ZM644.432 30.48H660.432V26.48H644.432V30.48ZM658.554 29.1681L692.09 120.688L695.846 119.312L662.31 27.7919L658.554 29.1681ZM693.968 118H678.48V122H693.968V118ZM680.372 119.351L672.948 97.7188L669.164 99.0172L676.588 120.649L680.372 119.351ZM637.904 87.696H666.96V83.696H637.904V87.696ZM668.858 85.0669L654.522 41.8029L650.726 43.0611L665.062 86.3251L668.858 85.0669ZM652.624 40.432H652.368V44.432H652.624V40.432ZM650.471 41.7979L636.007 85.0619L639.801 86.3301L654.265 43.0661L650.471 41.7979ZM716.247 120H714.247V122H716.247V120ZM716.247 41.408H718.247V39.408H716.247V41.408ZM686.935 41.408H684.935V43.408H686.935V41.408ZM686.935 28.48V26.48H684.935V28.48H686.935ZM760.663 28.48H762.663V26.48H760.663V28.48ZM760.663 41.408V43.408H762.663V41.408H760.663ZM731.479 41.408V39.408H729.479V41.408H731.479ZM731.479 120V122H733.479V120H731.479ZM718.247 120V41.408H714.247V120H718.247ZM716.247 39.408H686.935V43.408H716.247V39.408ZM688.935 41.408V28.48H684.935V41.408H688.935ZM686.935 30.48H760.663V26.48H686.935V30.48ZM758.663 28.48V41.408H762.663V28.48H758.663ZM760.663 39.408H731.479V43.408H760.663V39.408ZM729.479 41.408V120H733.479V41.408H729.479ZM731.479 118H716.247V122H731.479V118ZM770.778 28.48V26.48H768.778V28.48H770.778ZM786.01 28.48H788.01V26.48H786.01V28.48ZM827.866 28.48V26.48H825.866V28.48H827.866ZM842.97 28.48H844.97V26.48H842.97V28.48ZM840.97 88.768C840.97 98.4137 838.408 106.114 833.066 111.412C827.722 116.712 819.283 119.92 806.874 119.92V123.92C819.937 123.92 829.546 120.536 835.882 114.252C842.22 107.966 844.97 99.0903 844.97 88.768H840.97ZM806.874 119.92C794.465 119.92 786.026 116.712 780.682 111.412C775.34 106.114 772.778 98.4137 772.778 88.768H768.778C768.778 99.0903 771.528 107.966 777.866 114.252C784.202 120.536 793.811 123.92 806.874 123.92V119.92ZM772.778 88.768V28.48H768.778V88.768H772.778ZM770.778 30.48H786.01V26.48H770.778V30.48ZM784.01 28.48V88.768H788.01V28.48H784.01ZM784.01 88.768C784.01 95.9881 785.817 101.638 789.833 105.45C793.828 109.243 799.641 110.864 806.874 110.864V106.864C800.155 106.864 795.536 105.349 792.587 102.549C789.659 99.7696 788.01 95.3719 788.01 88.768H784.01ZM806.874 110.864C814.167 110.864 820.012 109.245 824.024 105.454C828.059 101.641 829.866 95.9881 829.866 88.768H825.866C825.866 95.3719 824.217 99.7672 821.276 102.546C818.312 105.347 813.661 106.864 806.874 106.864V110.864ZM829.866 88.768V28.48H825.866V88.768H829.866ZM827.866 30.48H842.97V26.48H827.866V30.48ZM840.97 28.48V88.768H844.97V28.48H840.97ZM858.433 120H856.433V122H858.433V120ZM858.433 28.48V26.48H856.433V28.48H858.433ZM911.425 77.504L910.951 75.561L909.425 75.9332V77.504H911.425ZM911.425 77.76H909.425V79.4192L911.056 79.7256L911.425 77.76ZM929.729 119.104H931.729V117.638L930.331 117.197L929.729 119.104ZM929.729 120V122H931.729V120H929.729ZM913.729 120L912.384 121.48L912.956 122H913.729V120ZM873.665 84.672V82.672H871.665V84.672H873.665ZM873.665 120V122H875.665V120H873.665ZM873.665 41.408V39.408H871.665V41.408H873.665ZM873.665 71.616H871.665V73.616H873.665V71.616ZM860.433 120V28.48H856.433V120H860.433ZM858.433 30.48H897.473V26.48H858.433V30.48ZM897.473 30.48C906.563 30.48 913.806 32.7999 918.739 36.8983C923.625 40.9577 926.449 46.928 926.449 54.72H930.449C930.449 45.872 927.193 38.7222 921.295 33.8217C915.444 28.9601 907.199 26.48 897.473 26.48V30.48ZM926.449 54.72C926.449 60.7755 924.91 65.3698 922.296 68.7223C919.682 72.0743 915.854 74.365 910.951 75.561L911.899 79.447C917.492 78.083 922.176 75.3817 925.45 71.1817C928.725 66.9822 930.449 61.4645 930.449 54.72H926.449ZM909.425 77.504V77.76H913.425V77.504H909.425ZM911.056 79.7256C915.683 80.595 918.708 83.1688 920.789 86.6944C922.914 90.2967 924.041 94.8863 924.692 99.6167C925.346 104.371 925.489 108.944 925.794 112.715C925.941 114.537 926.132 116.234 926.477 117.555C926.65 118.216 926.89 118.897 927.255 119.486C927.626 120.083 928.218 120.724 929.127 121.011L930.331 117.197C930.632 117.292 930.714 117.473 930.653 117.375C930.586 117.267 930.471 117.017 930.347 116.543C930.099 115.595 929.927 114.209 929.781 112.393C929.497 108.888 929.328 103.965 928.654 99.0713C927.977 94.1537 926.76 88.9433 924.234 84.6616C921.662 80.3032 917.727 76.909 911.794 75.7944L911.056 79.7256ZM927.729 119.104V120H931.729V119.104H927.729ZM929.729 118H913.729V122H929.729V118ZM915.074 118.52C915.089 118.534 914.839 118.24 914.631 117.038C914.443 115.954 914.348 114.527 914.282 112.783C914.151 109.388 914.136 104.929 913.551 100.626C912.966 96.3276 911.779 91.8487 909.094 88.4191C906.32 84.8756 902.121 82.672 896.065 82.672V86.672C901.017 86.672 904.002 88.4044 905.944 90.8849C907.975 93.4793 909.036 97.1124 909.587 101.166C910.138 105.215 910.147 109.348 910.284 112.937C910.352 114.685 910.452 116.348 910.69 117.721C910.907 118.976 911.313 120.506 912.384 121.48L915.074 118.52ZM896.065 82.672H873.665V86.672H896.065V82.672ZM871.665 84.672V120H875.665V84.672H871.665ZM873.665 118H858.433V122H873.665V118ZM871.665 41.408V71.616H875.665V41.408H871.665ZM873.665 73.616H894.273V69.616H873.665V73.616ZM894.273 73.616C898.982 73.616 904.227 73.1852 908.325 70.781C912.643 68.2476 915.345 63.7448 915.345 56.512H911.345C911.345 62.5911 909.183 65.6404 906.301 67.3309C903.199 69.1508 898.908 69.616 894.273 69.616V73.616ZM915.345 56.512C915.345 49.336 912.639 44.8407 908.331 42.2943C904.236 39.8737 898.994 39.408 894.273 39.408V43.408C898.896 43.408 903.19 43.9023 906.295 45.7377C909.187 47.4473 911.345 50.504 911.345 56.512H915.345ZM894.273 39.408H873.665V43.408H894.273V39.408ZM957.165 66.24H955.165V68.24H957.165V66.24ZM1001.84 66.24H1003.84V64.24H1001.84V66.24ZM1001.84 79.296V81.296H1003.84V79.296H1001.84ZM957.165 79.296V77.296H955.165V79.296H957.165ZM957.165 107.072H955.165V109.072H957.165V107.072ZM1009.39 107.072H1011.39V105.072H1009.39V107.072ZM1009.39 120V122H1011.39V120H1009.39ZM941.933 120H939.933V122H941.933V120ZM941.933 28.48V26.48H939.933V28.48H941.933ZM1008.11 28.48H1010.11V26.48H1008.11V28.48ZM1008.11 41.408V43.408H1010.11V41.408H1008.11ZM957.165 41.408V39.408H955.165V41.408H957.165ZM957.165 68.24H1001.84V64.24H957.165V68.24ZM999.837 66.24V79.296H1003.84V66.24H999.837ZM1001.84 77.296H957.165V81.296H1001.84V77.296ZM955.165 79.296V107.072H959.165V79.296H955.165ZM957.165 109.072H1009.39V105.072H957.165V109.072ZM1007.39 107.072V120H1011.39V107.072H1007.39ZM1009.39 118H941.933V122H1009.39V118ZM943.933 120V28.48H939.933V120H943.933ZM941.933 30.48H1008.11V26.48H941.933V30.48ZM1006.11 28.48V41.408H1010.11V28.48H1006.11ZM1008.11 39.408H957.165V43.408H1008.11V39.408ZM955.165 41.408V66.24H959.165V41.408H955.165Z" fill="#F5F5F5"/>
<path d="M1656.59 70.592L1655.95 68.6979L1654.59 69.1582V70.592H1656.59ZM1656.59 70.848H1654.59V72.5312L1656.25 72.8186L1656.59 70.848ZM1601.81 120H1599.81V122H1601.81V120ZM1601.81 28.48V26.48H1599.81V28.48H1601.81ZM1617.04 66.368H1615.04V68.368H1617.04V66.368ZM1617.04 41.408V39.408H1615.04V41.408H1617.04ZM1617.04 77.76V75.76H1615.04V77.76H1617.04ZM1617.04 107.072H1615.04V109.072H1617.04V107.072ZM1668.8 51.52C1668.8 56.7245 1667.28 60.3767 1665.01 63.0178C1662.71 65.6958 1659.52 67.488 1655.95 68.6979L1657.23 72.4861C1661.22 71.136 1665.13 69.0242 1668.05 65.6222C1671 62.1833 1672.8 57.5795 1672.8 51.52H1668.8ZM1654.59 70.592V70.848H1658.59V70.592H1654.59ZM1656.25 72.8186C1660.68 73.5868 1664.69 75.5769 1667.59 78.8595C1670.47 82.1252 1672.38 86.8181 1672.38 93.248H1676.38C1676.38 85.9819 1674.2 80.3068 1670.59 76.2125C1666.99 72.1351 1662.1 69.7732 1656.93 68.8774L1656.25 72.8186ZM1672.38 93.248C1672.38 101.585 1669.54 107.668 1664.66 111.708C1659.73 115.795 1652.46 118 1643.28 118V122C1653.04 122 1661.33 119.661 1667.21 114.788C1673.15 109.868 1676.38 102.575 1676.38 93.248H1672.38ZM1643.28 118H1601.81V122H1643.28V118ZM1603.81 120V28.48H1599.81V120H1603.81ZM1601.81 30.48H1641.1V26.48H1601.81V30.48ZM1641.1 30.48C1650.25 30.48 1657.19 32.5076 1661.78 36.0625C1666.31 39.5605 1668.8 44.705 1668.8 51.52H1672.8C1672.8 43.6149 1669.85 37.2395 1664.23 32.8975C1658.69 28.6124 1650.77 26.48 1641.1 26.48V30.48ZM1617.04 68.368H1640.59V64.368H1617.04V68.368ZM1640.59 68.368C1646.24 68.368 1650.56 67.2498 1653.48 64.686C1656.46 62.0697 1657.57 58.3049 1657.57 53.952H1653.57C1653.57 57.6631 1652.63 60.1063 1650.84 61.682C1648.99 63.3102 1645.83 64.368 1640.59 64.368V68.368ZM1657.57 53.952C1657.57 49.4946 1656.17 45.758 1653.27 43.1639C1650.4 40.6018 1646.33 39.408 1641.49 39.408V43.408C1645.73 43.408 1648.71 44.4542 1650.6 46.148C1652.47 47.81 1653.57 50.3454 1653.57 53.952H1657.57ZM1641.49 39.408H1617.04V43.408H1641.49V39.408ZM1615.04 41.408V66.368H1619.04V41.408H1615.04ZM1615.04 77.76V107.072H1619.04V77.76H1615.04ZM1617.04 109.072H1642.13V105.072H1617.04V109.072ZM1642.13 109.072C1648.93 109.072 1653.8 107.474 1656.95 104.347C1660.1 101.213 1661.15 96.914 1661.15 92.352H1657.15C1657.15 96.366 1656.22 99.4265 1654.13 101.509C1652.02 103.598 1648.38 105.072 1642.13 105.072V109.072ZM1661.15 92.352C1661.15 87.2602 1659.57 83.0343 1656.44 80.0943C1653.33 77.1714 1648.94 75.76 1643.79 75.76V79.76C1648.24 79.76 1651.53 80.9726 1653.7 83.0097C1655.85 85.0297 1657.15 88.0998 1657.15 92.352H1661.15ZM1643.79 75.76H1617.04V79.76H1643.79V75.76ZM1701.67 66.24H1699.67V68.24H1701.67V66.24ZM1746.34 66.24H1748.34V64.24H1746.34V66.24ZM1746.34 79.296V81.296H1748.34V79.296H1746.34ZM1701.67 79.296V77.296H1699.67V79.296H1701.67ZM1701.67 107.072H1699.67V109.072H1701.67V107.072ZM1753.89 107.072H1755.89V105.072H1753.89V107.072ZM1753.89 120V122H1755.89V120H1753.89ZM1686.43 120H1684.43V122H1686.43V120ZM1686.43 28.48V26.48H1684.43V28.48H1686.43ZM1752.61 28.48H1754.61V26.48H1752.61V28.48ZM1752.61 41.408V43.408H1754.61V41.408H1752.61ZM1701.67 41.408V39.408H1699.67V41.408H1701.67ZM1701.67 68.24H1746.34V64.24H1701.67V68.24ZM1744.34 66.24V79.296H1748.34V66.24H1744.34ZM1746.34 77.296H1701.67V81.296H1746.34V77.296ZM1699.67 79.296V107.072H1703.67V79.296H1699.67ZM1701.67 109.072H1753.89V105.072H1701.67V109.072ZM1751.89 107.072V120H1755.89V107.072H1751.89ZM1753.89 118H1686.43V122H1753.89V118ZM1688.43 120V28.48H1684.43V120H1688.43ZM1686.43 30.48H1752.61V26.48H1686.43V30.48ZM1750.61 28.48V41.408H1754.61V28.48H1750.61ZM1752.61 39.408H1701.67V43.408H1752.61V39.408ZM1699.67 41.408V66.24H1703.67V41.408H1699.67ZM1821.56 98.368L1823.45 97.7188L1822.98 96.368H1821.56V98.368ZM1784.18 98.368V96.368H1782.75L1782.29 97.7188L1784.18 98.368ZM1776.76 120V122H1778.18L1778.65 120.649L1776.76 120ZM1761.27 120L1759.39 119.31L1758.4 122H1761.27V120ZM1794.93 28.48V26.48H1793.54L1793.05 27.7896L1794.93 28.48ZM1810.93 28.48L1812.81 27.7919L1812.33 26.48H1810.93V28.48ZM1844.47 120V122H1847.33L1846.35 119.312L1844.47 120ZM1828.98 120L1827.09 120.649L1827.55 122H1828.98V120ZM1788.4 85.696L1786.51 85.0619L1785.63 87.696H1788.4V85.696ZM1817.46 85.696V87.696H1820.23L1819.36 85.0669L1817.46 85.696ZM1803.12 42.432L1805.02 41.8029L1804.57 40.432H1803.12V42.432ZM1802.87 42.432V40.432H1801.43L1800.97 41.7979L1802.87 42.432ZM1821.56 96.368H1784.18V100.368H1821.56V96.368ZM1782.29 97.7188L1774.86 119.351L1778.65 120.649L1786.07 99.0172L1782.29 97.7188ZM1776.76 118H1761.27V122H1776.76V118ZM1763.15 120.69L1796.81 29.1704L1793.05 27.7896L1759.39 119.31L1763.15 120.69ZM1794.93 30.48H1810.93V26.48H1794.93V30.48ZM1809.05 29.1681L1842.59 120.688L1846.35 119.312L1812.81 27.7919L1809.05 29.1681ZM1844.47 118H1828.98V122H1844.47V118ZM1830.87 119.351L1823.45 97.7188L1819.66 99.0172L1827.09 120.649L1830.87 119.351ZM1788.4 87.696H1817.46V83.696H1788.4V87.696ZM1819.36 85.0669L1805.02 41.8029L1801.23 43.0611L1815.56 86.3251L1819.36 85.0669ZM1803.12 40.432H1802.87V44.432H1803.12V40.432ZM1800.97 41.7979L1786.51 85.0619L1790.3 86.3301L1804.76 43.0661L1800.97 41.7979ZM1850.4 28.48V26.48H1848.4V28.48H1850.4ZM1865.64 28.48H1867.64V26.48H1865.64V28.48ZM1907.49 28.48V26.48H1905.49V28.48H1907.49ZM1922.6 28.48H1924.6V26.48H1922.6V28.48ZM1920.6 88.768C1920.6 98.4137 1918.03 106.114 1912.69 111.412C1907.35 116.712 1898.91 119.92 1886.5 119.92V123.92C1899.56 123.92 1909.17 120.536 1915.51 114.252C1921.85 107.966 1924.6 99.0903 1924.6 88.768H1920.6ZM1886.5 119.92C1874.09 119.92 1865.65 116.712 1860.31 111.412C1854.97 106.114 1852.4 98.4137 1852.4 88.768H1848.4C1848.4 99.0903 1851.15 107.966 1857.49 114.252C1863.83 120.536 1873.44 123.92 1886.5 123.92V119.92ZM1852.4 88.768V28.48H1848.4V88.768H1852.4ZM1850.4 30.48H1865.64V26.48H1850.4V30.48ZM1863.64 28.48V88.768H1867.64V28.48H1863.64ZM1863.64 88.768C1863.64 95.9881 1865.44 101.638 1869.46 105.45C1873.45 109.243 1879.27 110.864 1886.5 110.864V106.864C1879.78 106.864 1875.16 105.349 1872.21 102.549C1869.28 99.7696 1867.64 95.3719 1867.64 88.768H1863.64ZM1886.5 110.864C1893.79 110.864 1899.64 109.245 1903.65 105.454C1907.68 101.641 1909.49 95.9881 1909.49 88.768H1905.49C1905.49 95.3719 1903.84 99.7672 1900.9 102.546C1897.94 105.347 1893.29 106.864 1886.5 106.864V110.864ZM1909.49 88.768V28.48H1905.49V88.768H1909.49ZM1907.49 30.48H1922.6V26.48H1907.49V30.48ZM1920.6 28.48V88.768H1924.6V28.48H1920.6ZM1962.12 120H1960.12V122H1962.12V120ZM1962.12 41.408H1964.12V39.408H1962.12V41.408ZM1932.81 41.408H1930.81V43.408H1932.81V41.408ZM1932.81 28.48V26.48H1930.81V28.48H1932.81ZM2006.54 28.48H2008.54V26.48H2006.54V28.48ZM2006.54 41.408V43.408H2008.54V41.408H2006.54ZM1977.35 41.408V39.408H1975.35V41.408H1977.35ZM1977.35 120V122H1979.35V120H1977.35ZM1964.12 120V41.408H1960.12V120H1964.12ZM1962.12 39.408H1932.81V43.408H1962.12V39.408ZM1934.81 41.408V28.48H1930.81V41.408H1934.81ZM1932.81 30.48H2006.54V26.48H1932.81V30.48ZM2004.54 28.48V41.408H2008.54V28.48H2004.54ZM2006.54 39.408H1977.35V43.408H2006.54V39.408ZM1975.35 41.408V120H1979.35V41.408H1975.35ZM1977.35 118H1962.12V122H1977.35V118ZM2018.19 28.48V26.48H2016.19V28.48H2018.19ZM2033.42 28.48H2035.42V26.48H2033.42V28.48ZM2033.42 120V122H2035.42V120H2033.42ZM2018.19 120H2016.19V122H2018.19V120ZM2018.19 30.48H2033.42V26.48H2018.19V30.48ZM2031.42 28.48V120H2035.42V28.48H2031.42ZM2033.42 118H2018.19V122H2033.42V118ZM2020.19 120V28.48H2016.19V120H2020.19ZM2065.42 68.032H2063.42V70.032H2065.42V68.032ZM2104.97 68.032H2106.97V66.032H2104.97V68.032ZM2104.97 81.088V83.088H2106.97V81.088H2104.97ZM2065.42 81.088V79.088H2063.42V81.088H2065.42ZM2065.42 120V122H2067.42V120H2065.42ZM2050.18 120H2048.18V122H2050.18V120ZM2050.18 28.48V26.48H2048.18V28.48H2050.18ZM2114.18 28.48H2116.18V26.48H2114.18V28.48ZM2114.18 41.408V43.408H2116.18V41.408H2114.18ZM2065.42 41.408V39.408H2063.42V41.408H2065.42ZM2065.42 70.032H2104.97V66.032H2065.42V70.032ZM2102.97 68.032V81.088H2106.97V68.032H2102.97ZM2104.97 79.088H2065.42V83.088H2104.97V79.088ZM2063.42 81.088V120H2067.42V81.088H2063.42ZM2065.42 118H2050.18V122H2065.42V118ZM2052.18 120V28.48H2048.18V120H2052.18ZM2050.18 30.48H2114.18V26.48H2050.18V30.48ZM2112.18 28.48V41.408H2116.18V28.48H2112.18ZM2114.18 39.408H2065.42V43.408H2114.18V39.408ZM2063.42 41.408V68.032H2067.42V41.408H2063.42ZM2124.9 28.48V26.48H2122.9V28.48H2124.9ZM2140.14 28.48H2142.14V26.48H2140.14V28.48ZM2181.99 28.48V26.48H2179.99V28.48H2181.99ZM2197.1 28.48H2199.1V26.48H2197.1V28.48ZM2195.1 88.768C2195.1 98.4137 2192.53 106.114 2187.19 111.412C2181.85 116.712 2173.41 119.92 2161 119.92V123.92C2174.06 123.92 2183.67 120.536 2190.01 114.252C2196.35 107.966 2199.1 99.0903 2199.1 88.768H2195.1ZM2161 119.92C2148.59 119.92 2140.15 116.712 2134.81 111.412C2129.47 106.114 2126.9 98.4137 2126.9 88.768H2122.9C2122.9 99.0903 2125.65 107.966 2131.99 114.252C2138.33 120.536 2147.94 123.92 2161 123.92V119.92ZM2126.9 88.768V28.48H2122.9V88.768H2126.9ZM2124.9 30.48H2140.14V26.48H2124.9V30.48ZM2138.14 28.48V88.768H2142.14V28.48H2138.14ZM2138.14 88.768C2138.14 95.9881 2139.94 101.638 2143.96 105.45C2147.95 109.243 2153.77 110.864 2161 110.864V106.864C2154.28 106.864 2149.66 105.349 2146.71 102.549C2143.78 99.7696 2142.14 95.3719 2142.14 88.768H2138.14ZM2161 110.864C2168.29 110.864 2174.14 109.245 2178.15 105.454C2182.18 101.641 2183.99 95.9881 2183.99 88.768H2179.99C2179.99 95.3719 2178.34 99.7672 2175.4 102.546C2172.44 105.347 2167.79 106.864 2161 106.864V110.864ZM2183.99 88.768V28.48H2179.99V88.768H2183.99ZM2181.99 30.48H2197.1V26.48H2181.99V30.48ZM2195.1 28.48V88.768H2199.1V28.48H2195.1ZM2212.56 28.48V26.48H2210.56V28.48H2212.56ZM2227.79 28.48H2229.79V26.48H2227.79V28.48ZM2227.79 107.072H2225.79V109.072H2227.79V107.072ZM2273.49 107.072H2275.49V105.072H2273.49V107.072ZM2273.49 120V122H2275.49V120H2273.49ZM2212.56 120H2210.56V122H2212.56V120ZM2212.56 30.48H2227.79V26.48H2212.56V30.48ZM2225.79 28.48V107.072H2229.79V28.48H2225.79ZM2227.79 109.072H2273.49V105.072H2227.79V109.072ZM2271.49 107.072V120H2275.49V107.072H2271.49ZM2273.49 118H2212.56V122H2273.49V118ZM2214.56 120V28.48H2210.56V120H2214.56Z" fill="#F5F5F5"/>
<path d="M843.808 206.48V204.48H841.808V206.48H843.808ZM859.04 206.48H861.04V204.48H859.04V206.48ZM859.04 285.072H857.04V287.072H859.04V285.072ZM904.736 285.072H906.736V283.072H904.736V285.072ZM904.736 298V300H906.736V298H904.736ZM843.808 298H841.808V300H843.808V298ZM843.808 208.48H859.04V204.48H843.808V208.48ZM857.04 206.48V285.072H861.04V206.48H857.04ZM859.04 287.072H904.736V283.072H859.04V287.072ZM902.736 285.072V298H906.736V285.072H902.736ZM904.736 296H843.808V300H904.736V296ZM845.808 298V206.48H841.808V298H845.808ZM952.655 297.92C939.347 297.92 928.666 293.068 921.298 285.018C913.913 276.949 909.727 265.521 909.727 252.176H905.727C905.727 266.351 910.181 278.795 918.348 287.718C926.532 296.66 938.315 301.92 952.655 301.92V297.92ZM909.727 252.176C909.727 238.831 913.913 227.437 921.296 219.401C928.662 211.383 939.343 206.56 952.655 206.56V202.56C938.319 202.56 926.536 207.785 918.35 216.695C910.181 225.587 905.727 238.001 905.727 252.176H909.727ZM952.655 206.56C965.901 206.56 976.584 211.382 983.968 219.403C991.367 227.441 995.583 238.835 995.583 252.176H999.583C999.583 237.997 995.095 225.583 986.91 216.693C978.71 207.786 966.929 202.56 952.655 202.56V206.56ZM995.583 252.176C995.583 265.517 991.367 276.945 983.965 285.016C976.58 293.069 965.897 297.92 952.655 297.92V301.92C966.933 301.92 978.714 296.659 986.913 287.72C995.095 278.799 999.583 266.355 999.583 252.176H995.583ZM952.655 288.864C963.73 288.864 971.765 284.575 976.971 277.686C982.116 270.877 984.351 261.731 984.351 252.176H980.351C980.351 261.181 978.234 269.379 973.779 275.274C969.385 281.089 962.572 284.864 952.655 284.864V288.864ZM984.351 252.176C984.351 242.683 982.114 233.568 976.969 226.776C971.764 219.905 963.73 215.616 952.655 215.616V219.616C962.572 219.616 969.386 223.391 973.781 229.192C978.236 235.072 980.351 243.237 980.351 252.176H984.351ZM952.655 215.616C941.581 215.616 933.518 219.904 928.281 226.771C923.102 233.562 920.831 242.677 920.831 252.176H924.831C924.831 243.243 926.976 235.078 931.461 229.197C935.888 223.392 942.737 219.616 952.655 219.616V215.616ZM920.831 252.176C920.831 261.737 923.101 270.884 928.279 277.691C933.517 284.576 941.581 288.864 952.655 288.864V284.864C942.737 284.864 935.889 281.088 931.463 275.269C926.977 269.372 924.831 261.175 924.831 252.176H920.831ZM999.143 206.48V204.48H996.347L997.25 207.126L999.143 206.48ZM1015.27 206.48L1017.18 205.886L1016.74 204.48H1015.27V206.48ZM1038.57 281.36L1036.66 281.954L1037.09 283.36H1038.57V281.36ZM1038.7 281.36V283.36H1040.17L1040.6 281.954L1038.7 281.36ZM1061.99 206.48V204.48H1060.52L1060.08 205.886L1061.99 206.48ZM1078.12 206.48L1080.01 207.126L1080.91 204.48H1078.12V206.48ZM1046.89 298V300H1048.32L1048.78 298.646L1046.89 298ZM1030.38 298L1028.48 298.646L1028.94 300H1030.38V298ZM999.143 208.48H1015.27V204.48H999.143V208.48ZM1013.36 207.074L1036.66 281.954L1040.48 280.766L1017.18 205.886L1013.36 207.074ZM1038.57 283.36H1038.7V279.36H1038.57V283.36ZM1040.6 281.954L1063.9 207.074L1060.08 205.886L1036.79 280.766L1040.6 281.954ZM1061.99 208.48H1078.12V204.48H1061.99V208.48ZM1076.23 205.834L1044.99 297.354L1048.78 298.646L1080.01 207.126L1076.23 205.834ZM1046.89 296H1030.38V300H1046.89V296ZM1032.27 297.354L1001.04 205.834L997.25 207.126L1028.48 298.646L1032.27 297.354ZM1102.92 244.24H1100.92V246.24H1102.92V244.24ZM1147.59 244.24H1149.59V242.24H1147.59V244.24ZM1147.59 257.296V259.296H1149.59V257.296H1147.59ZM1102.92 257.296V255.296H1100.92V257.296H1102.92ZM1102.92 285.072H1100.92V287.072H1102.92V285.072ZM1155.14 285.072H1157.14V283.072H1155.14V285.072ZM1155.14 298V300H1157.14V298H1155.14ZM1087.68 298H1085.68V300H1087.68V298ZM1087.68 206.48V204.48H1085.68V206.48H1087.68ZM1153.86 206.48H1155.86V204.48H1153.86V206.48ZM1153.86 219.408V221.408H1155.86V219.408H1153.86ZM1102.92 219.408V217.408H1100.92V219.408H1102.92ZM1102.92 246.24H1147.59V242.24H1102.92V246.24ZM1145.59 244.24V257.296H1149.59V244.24H1145.59ZM1147.59 255.296H1102.92V259.296H1147.59V255.296ZM1100.92 257.296V285.072H1104.92V257.296H1100.92ZM1102.92 287.072H1155.14V283.072H1102.92V287.072ZM1153.14 285.072V298H1157.14V285.072H1153.14ZM1155.14 296H1087.68V300H1155.14V296ZM1089.68 298V206.48H1085.68V298H1089.68ZM1087.68 208.48H1153.86V204.48H1087.68V208.48ZM1151.86 206.48V219.408H1155.86V206.48H1151.86ZM1153.86 217.408H1102.92V221.408H1153.86V217.408ZM1100.92 219.408V244.24H1104.92V219.408H1100.92ZM1168.56 298H1166.56V300H1168.56V298ZM1168.56 206.48V204.48H1166.56V206.48H1168.56ZM1221.55 255.504L1221.08 253.561L1219.55 253.933V255.504H1221.55ZM1221.55 255.76H1219.55V257.419L1221.18 257.726L1221.55 255.76ZM1239.85 297.104H1241.85V295.638L1240.46 295.197L1239.85 297.104ZM1239.85 298V300H1241.85V298H1239.85ZM1223.85 298L1222.51 299.48L1223.08 300H1223.85V298ZM1183.79 262.672V260.672H1181.79V262.672H1183.79ZM1183.79 298V300H1185.79V298H1183.79ZM1183.79 219.408V217.408H1181.79V219.408H1183.79ZM1183.79 249.616H1181.79V251.616H1183.79V249.616ZM1170.56 298V206.48H1166.56V298H1170.56ZM1168.56 208.48H1207.6V204.48H1168.56V208.48ZM1207.6 208.48C1216.69 208.48 1223.93 210.8 1228.86 214.898C1233.75 218.958 1236.57 224.928 1236.57 232.72H1240.57C1240.57 223.872 1237.32 216.722 1231.42 211.822C1225.57 206.96 1217.32 204.48 1207.6 204.48V208.48ZM1236.57 232.72C1236.57 238.776 1235.03 243.37 1232.42 246.722C1229.81 250.074 1225.98 252.365 1221.08 253.561L1222.02 257.447C1227.62 256.083 1232.3 253.382 1235.58 249.182C1238.85 244.982 1240.57 239.464 1240.57 232.72H1236.57ZM1219.55 255.504V255.76H1223.55V255.504H1219.55ZM1221.18 257.726C1225.81 258.595 1228.83 261.169 1230.91 264.694C1233.04 268.297 1234.17 272.886 1234.82 277.617C1235.47 282.371 1235.61 286.944 1235.92 290.715C1236.07 292.537 1236.26 294.234 1236.6 295.555C1236.78 296.216 1237.01 296.897 1237.38 297.486C1237.75 298.083 1238.34 298.724 1239.25 299.011L1240.46 295.197C1240.76 295.292 1240.84 295.473 1240.78 295.375C1240.71 295.267 1240.6 295.017 1240.47 294.543C1240.22 293.595 1240.05 292.209 1239.91 290.393C1239.62 286.888 1239.45 281.965 1238.78 277.071C1238.1 272.154 1236.88 266.943 1234.36 262.662C1231.79 258.303 1227.85 254.909 1221.92 253.794L1221.18 257.726ZM1237.85 297.104V298H1241.85V297.104H1237.85ZM1239.85 296H1223.85V300H1239.85V296ZM1225.2 296.52C1225.21 296.534 1224.96 296.24 1224.76 295.038C1224.57 293.954 1224.47 292.527 1224.41 290.783C1224.28 287.388 1224.26 282.929 1223.68 278.626C1223.09 274.328 1221.9 269.849 1219.22 266.419C1216.44 262.876 1212.25 260.672 1206.19 260.672V264.672C1211.14 264.672 1214.13 266.404 1216.07 268.885C1218.1 271.479 1219.16 275.112 1219.71 279.166C1220.26 283.215 1220.27 287.348 1220.41 290.937C1220.48 292.685 1220.58 294.348 1220.81 295.721C1221.03 296.976 1221.44 298.506 1222.51 299.48L1225.2 296.52ZM1206.19 260.672H1183.79V264.672H1206.19V260.672ZM1181.79 262.672V298H1185.79V262.672H1181.79ZM1183.79 296H1168.56V300H1183.79V296ZM1181.79 219.408V249.616H1185.79V219.408H1181.79ZM1183.79 251.616H1204.4V247.616H1183.79V251.616ZM1204.4 251.616C1209.11 251.616 1214.35 251.185 1218.45 248.781C1222.77 246.248 1225.47 241.745 1225.47 234.512H1221.47C1221.47 240.591 1219.31 243.64 1216.43 245.331C1213.32 247.151 1209.03 247.616 1204.4 247.616V251.616ZM1225.47 234.512C1225.47 227.336 1222.76 222.841 1218.46 220.294C1214.36 217.874 1209.12 217.408 1204.4 217.408V221.408C1209.02 221.408 1213.32 221.902 1216.42 223.738C1219.31 225.447 1221.47 228.504 1221.47 234.512H1225.47ZM1204.4 217.408H1183.79V221.408H1204.4V217.408Z" fill="#F5F5F5"/>
<path d="M1231.55 415.968L1229.58 416.323L1229.88 417.968H1231.55V415.968ZM1231.55 442.592V440.592H1229.73L1229.56 442.409L1231.55 442.592ZM1246.78 442.592L1248.77 442.79L1248.99 440.592H1246.78V442.592ZM1246.78 415.968V417.968H1249.03L1248.77 415.737L1246.78 415.968ZM1233.52 415.613C1232.64 410.758 1230.6 405.253 1226.41 400.942C1222.17 396.58 1215.91 393.616 1206.98 393.616V397.616C1214.94 397.616 1220.13 400.22 1223.54 403.73C1227 407.291 1228.8 411.962 1229.58 416.323L1233.52 415.613ZM1206.98 393.616C1196.47 393.616 1188.97 398.062 1184.18 404.99C1179.45 411.821 1177.46 420.907 1177.46 430.176H1181.46C1181.46 421.397 1183.36 413.203 1187.47 407.266C1191.51 401.426 1197.77 397.616 1206.98 397.616V393.616ZM1177.46 430.176C1177.46 439.507 1179.45 448.625 1184.18 455.472C1188.97 462.417 1196.47 466.864 1206.98 466.864V462.864C1197.77 462.864 1191.51 459.055 1187.47 453.2C1183.36 447.247 1181.46 439.021 1181.46 430.176H1177.46ZM1206.98 466.864C1215.96 466.864 1222.41 463.906 1226.73 459.267C1231 454.676 1233 448.642 1233.54 442.775L1229.56 442.409C1229.08 447.678 1227.3 452.78 1223.8 456.541C1220.34 460.254 1215.02 462.864 1206.98 462.864V466.864ZM1231.55 444.592H1246.78V440.592H1231.55V444.592ZM1244.79 442.394C1243.81 452.295 1239.95 460.649 1233.67 466.523C1227.4 472.388 1218.57 475.92 1207.36 475.92V479.92C1219.45 479.92 1229.3 476.092 1236.41 469.445C1243.5 462.807 1247.71 453.497 1248.77 442.79L1244.79 442.394ZM1207.36 475.92C1194.72 475.92 1184.53 471.121 1177.47 463.095C1170.39 455.045 1166.35 443.607 1166.35 430.176H1162.35C1162.35 444.393 1166.63 456.827 1174.47 465.737C1182.32 474.671 1193.63 479.92 1207.36 479.92V475.92ZM1166.35 430.176C1166.35 416.811 1170.39 405.405 1177.47 397.37C1184.53 389.36 1194.72 384.56 1207.36 384.56V380.56C1193.63 380.56 1182.32 385.808 1174.47 394.726C1166.63 403.619 1162.35 416.021 1162.35 430.176H1166.35ZM1207.36 384.56C1218.5 384.56 1227.32 388.092 1233.61 393.743C1239.9 399.402 1243.76 407.291 1244.8 416.199L1248.77 415.737C1247.63 405.957 1243.37 397.142 1236.28 390.769C1229.19 384.388 1219.38 380.56 1207.36 380.56V384.56ZM1246.78 413.968H1231.55V417.968H1246.78V413.968ZM1259.06 476H1257.06V478H1259.06V476ZM1259.06 384.48V382.48H1257.06V384.48H1259.06ZM1312.05 433.504L1311.58 431.561L1310.05 431.933V433.504H1312.05ZM1312.05 433.76H1310.05V435.419L1311.68 435.726L1312.05 433.76ZM1330.35 475.104H1332.35V473.638L1330.96 473.197L1330.35 475.104ZM1330.35 476V478H1332.35V476H1330.35ZM1314.35 476L1313.01 477.48L1313.58 478H1314.35V476ZM1274.29 440.672V438.672H1272.29V440.672H1274.29ZM1274.29 476V478H1276.29V476H1274.29ZM1274.29 397.408V395.408H1272.29V397.408H1274.29ZM1274.29 427.616H1272.29V429.616H1274.29V427.616ZM1261.06 476V384.48H1257.06V476H1261.06ZM1259.06 386.48H1298.1V382.48H1259.06V386.48ZM1298.1 386.48C1307.19 386.48 1314.43 388.8 1319.36 392.898C1324.25 396.958 1327.07 402.928 1327.07 410.72H1331.07C1331.07 401.872 1327.82 394.722 1321.92 389.822C1316.07 384.96 1307.82 382.48 1298.1 382.48V386.48ZM1327.07 410.72C1327.07 416.776 1325.53 421.37 1322.92 424.722C1320.31 428.074 1316.48 430.365 1311.58 431.561L1312.52 435.447C1318.12 434.083 1322.8 431.382 1326.08 427.182C1329.35 422.982 1331.07 417.464 1331.07 410.72H1327.07ZM1310.05 433.504V433.76H1314.05V433.504H1310.05ZM1311.68 435.726C1316.31 436.595 1319.33 439.169 1321.41 442.694C1323.54 446.297 1324.67 450.886 1325.32 455.617C1325.97 460.371 1326.11 464.944 1326.42 468.715C1326.57 470.537 1326.76 472.234 1327.1 473.555C1327.28 474.216 1327.51 474.897 1327.88 475.486C1328.25 476.083 1328.84 476.724 1329.75 477.011L1330.96 473.197C1331.26 473.292 1331.34 473.473 1331.28 473.375C1331.21 473.267 1331.1 473.017 1330.97 472.543C1330.72 471.595 1330.55 470.209 1330.41 468.393C1330.12 464.888 1329.95 459.965 1329.28 455.071C1328.6 450.154 1327.38 444.943 1324.86 440.662C1322.29 436.303 1318.35 432.909 1312.42 431.794L1311.68 435.726ZM1328.35 475.104V476H1332.35V475.104H1328.35ZM1330.35 474H1314.35V478H1330.35V474ZM1315.7 474.52C1315.71 474.534 1315.46 474.24 1315.26 473.038C1315.07 471.954 1314.97 470.527 1314.91 468.783C1314.78 465.388 1314.76 460.929 1314.18 456.626C1313.59 452.328 1312.4 447.849 1309.72 444.419C1306.94 440.876 1302.75 438.672 1296.69 438.672V442.672C1301.64 442.672 1304.63 444.404 1306.57 446.885C1308.6 449.479 1309.66 453.112 1310.21 457.166C1310.76 461.215 1310.77 465.348 1310.91 468.937C1310.98 470.685 1311.08 472.348 1311.31 473.721C1311.53 474.976 1311.94 476.506 1313.01 477.48L1315.7 474.52ZM1296.69 438.672H1274.29V442.672H1296.69V438.672ZM1272.29 440.672V476H1276.29V440.672H1272.29ZM1274.29 474H1259.06V478H1274.29V474ZM1272.29 397.408V427.616H1276.29V397.408H1272.29ZM1274.29 429.616H1294.9V425.616H1274.29V429.616ZM1294.9 429.616C1299.61 429.616 1304.85 429.185 1308.95 426.781C1313.27 424.248 1315.97 419.745 1315.97 412.512H1311.97C1311.97 418.591 1309.81 421.64 1306.93 423.331C1303.82 425.151 1299.53 425.616 1294.9 425.616V429.616ZM1315.97 412.512C1315.97 405.336 1313.26 400.841 1308.96 398.294C1304.86 395.874 1299.62 395.408 1294.9 395.408V399.408C1299.52 399.408 1303.82 399.902 1306.92 401.738C1309.81 403.447 1311.97 406.504 1311.97 412.512H1315.97ZM1294.9 395.408H1274.29V399.408H1294.9V395.408ZM1357.79 422.24H1355.79V424.24H1357.79V422.24ZM1402.46 422.24H1404.46V420.24H1402.46V422.24ZM1402.46 435.296V437.296H1404.46V435.296H1402.46ZM1357.79 435.296V433.296H1355.79V435.296H1357.79ZM1357.79 463.072H1355.79V465.072H1357.79V463.072ZM1410.01 463.072H1412.01V461.072H1410.01V463.072ZM1410.01 476V478H1412.01V476H1410.01ZM1342.56 476H1340.56V478H1342.56V476ZM1342.56 384.48V382.48H1340.56V384.48H1342.56ZM1408.73 384.48H1410.73V382.48H1408.73V384.48ZM1408.73 397.408V399.408H1410.73V397.408H1408.73ZM1357.79 397.408V395.408H1355.79V397.408H1357.79ZM1357.79 424.24H1402.46V420.24H1357.79V424.24ZM1400.46 422.24V435.296H1404.46V422.24H1400.46ZM1402.46 433.296H1357.79V437.296H1402.46V433.296ZM1355.79 435.296V463.072H1359.79V435.296H1355.79ZM1357.79 465.072H1410.01V461.072H1357.79V465.072ZM1408.01 463.072V476H1412.01V463.072H1408.01ZM1410.01 474H1342.56V478H1410.01V474ZM1344.56 476V384.48H1340.56V476H1344.56ZM1342.56 386.48H1408.73V382.48H1342.56V386.48ZM1406.73 384.48V397.408H1410.73V384.48H1406.73ZM1408.73 395.408H1357.79V399.408H1408.73V395.408ZM1355.79 397.408V422.24H1359.79V397.408H1355.79ZM1477.68 454.368L1479.57 453.719L1479.11 452.368H1477.68V454.368ZM1440.31 454.368V452.368H1438.88L1438.41 453.719L1440.31 454.368ZM1432.88 476V478H1434.31L1434.77 476.649L1432.88 476ZM1417.39 476L1415.52 475.31L1414.53 478H1417.39V476ZM1451.06 384.48V382.48H1449.66L1449.18 383.79L1451.06 384.48ZM1467.06 384.48L1468.93 383.792L1468.45 382.48H1467.06V384.48ZM1500.59 476V478H1503.46L1502.47 475.312L1500.59 476ZM1485.11 476L1483.21 476.649L1483.68 478H1485.11V476ZM1444.53 441.696L1442.63 441.062L1441.75 443.696H1444.53V441.696ZM1473.59 441.696V443.696H1476.35L1475.48 441.067L1473.59 441.696ZM1459.25 398.432L1461.15 397.803L1460.69 396.432H1459.25V398.432ZM1458.99 398.432V396.432H1457.55L1457.1 397.798L1458.99 398.432ZM1477.68 452.368H1440.31V456.368H1477.68V452.368ZM1438.41 453.719L1430.99 475.351L1434.77 476.649L1442.2 455.017L1438.41 453.719ZM1432.88 474H1417.39V478H1432.88V474ZM1419.27 476.69L1452.93 385.17L1449.18 383.79L1415.52 475.31L1419.27 476.69ZM1451.06 386.48H1467.06V382.48H1451.06V386.48ZM1465.18 385.168L1498.72 476.688L1502.47 475.312L1468.93 383.792L1465.18 385.168ZM1500.59 474H1485.11V478H1500.59V474ZM1487 475.351L1479.57 453.719L1475.79 455.017L1483.21 476.649L1487 475.351ZM1444.53 443.696H1473.59V439.696H1444.53V443.696ZM1475.48 441.067L1461.15 397.803L1457.35 399.061L1471.69 442.325L1475.48 441.067ZM1459.25 396.432H1458.99V400.432H1459.25V396.432ZM1457.1 397.798L1442.63 441.062L1446.43 442.33L1460.89 399.066L1457.1 397.798ZM1522.87 476H1520.87V478H1522.87V476ZM1522.87 397.408H1524.87V395.408H1522.87V397.408ZM1493.56 397.408H1491.56V399.408H1493.56V397.408ZM1493.56 384.48V382.48H1491.56V384.48H1493.56ZM1567.29 384.48H1569.29V382.48H1567.29V384.48ZM1567.29 397.408V399.408H1569.29V397.408H1567.29ZM1538.1 397.408V395.408H1536.1V397.408H1538.1ZM1538.1 476V478H1540.1V476H1538.1ZM1524.87 476V397.408H1520.87V476H1524.87ZM1522.87 395.408H1493.56V399.408H1522.87V395.408ZM1495.56 397.408V384.48H1491.56V397.408H1495.56ZM1493.56 386.48H1567.29V382.48H1493.56V386.48ZM1565.29 384.48V397.408H1569.29V384.48H1565.29ZM1567.29 395.408H1538.1V399.408H1567.29V395.408ZM1536.1 397.408V476H1540.1V397.408H1536.1ZM1538.1 474H1522.87V478H1538.1V474ZM1578.94 384.48V382.48H1576.94V384.48H1578.94ZM1594.17 384.48H1596.17V382.48H1594.17V384.48ZM1594.17 476V478H1596.17V476H1594.17ZM1578.94 476H1576.94V478H1578.94V476ZM1578.94 386.48H1594.17V382.48H1578.94V386.48ZM1592.17 384.48V476H1596.17V384.48H1592.17ZM1594.17 474H1578.94V478H1594.17V474ZM1580.94 476V384.48H1576.94V476H1580.94ZM1603.89 384.48V382.48H1601.1L1602 385.126L1603.89 384.48ZM1620.02 384.48L1621.93 383.886L1621.49 382.48H1620.02V384.48ZM1643.32 459.36L1641.41 459.954L1641.84 461.36H1643.32V459.36ZM1643.45 459.36V461.36H1644.92L1645.35 459.954L1643.45 459.36ZM1666.74 384.48V382.48H1665.27L1664.83 383.886L1666.74 384.48ZM1682.87 384.48L1684.76 385.126L1685.66 382.48H1682.87V384.48ZM1651.64 476V478H1653.07L1653.53 476.646L1651.64 476ZM1635.12 476L1633.23 476.646L1633.69 478H1635.12V476ZM1603.89 386.48H1620.02V382.48H1603.89V386.48ZM1618.11 385.074L1641.41 459.954L1645.23 458.766L1621.93 383.886L1618.11 385.074ZM1643.32 461.36H1643.45V457.36H1643.32V461.36ZM1645.35 459.954L1668.65 385.074L1664.83 383.886L1641.54 458.766L1645.35 459.954ZM1666.74 386.48H1682.87V382.48H1666.74V386.48ZM1680.98 383.834L1649.74 475.354L1653.53 476.646L1684.76 385.126L1680.98 383.834ZM1651.64 474H1635.12V478H1651.64V474ZM1637.02 475.354L1605.79 383.834L1602 385.126L1633.23 476.646L1637.02 475.354ZM1707.67 422.24H1705.67V424.24H1707.67V422.24ZM1752.34 422.24H1754.34V420.24H1752.34V422.24ZM1752.34 435.296V437.296H1754.34V435.296H1752.34ZM1707.67 435.296V433.296H1705.67V435.296H1707.67ZM1707.67 463.072H1705.67V465.072H1707.67V463.072ZM1759.89 463.072H1761.89V461.072H1759.89V463.072ZM1759.89 476V478H1761.89V476H1759.89ZM1692.43 476H1690.43V478H1692.43V476ZM1692.43 384.48V382.48H1690.43V384.48H1692.43ZM1758.61 384.48H1760.61V382.48H1758.61V384.48ZM1758.61 397.408V399.408H1760.61V397.408H1758.61ZM1707.67 397.408V395.408H1705.67V397.408H1707.67ZM1707.67 424.24H1752.34V420.24H1707.67V424.24ZM1750.34 422.24V435.296H1754.34V422.24H1750.34ZM1752.34 433.296H1707.67V437.296H1752.34V433.296ZM1705.67 435.296V463.072H1709.67V435.296H1705.67ZM1707.67 465.072H1759.89V461.072H1707.67V465.072ZM1757.89 463.072V476H1761.89V463.072H1757.89ZM1759.89 474H1692.43V478H1759.89V474ZM1694.43 476V384.48H1690.43V476H1694.43ZM1692.43 386.48H1758.61V382.48H1692.43V386.48ZM1756.61 384.48V397.408H1760.61V384.48H1756.61ZM1758.61 395.408H1707.67V399.408H1758.61V395.408ZM1705.67 397.408V422.24H1709.67V397.408H1705.67Z" fill="#F5F5F5"/>
<path d="M1853.04 244.24H1851.04V246.24H1853.04V244.24ZM1897.71 244.24H1899.71V242.24H1897.71V244.24ZM1897.71 257.296V259.296H1899.71V257.296H1897.71ZM1853.04 257.296V255.296H1851.04V257.296H1853.04ZM1853.04 285.072H1851.04V287.072H1853.04V285.072ZM1905.26 285.072H1907.26V283.072H1905.26V285.072ZM1905.26 298V300H1907.26V298H1905.26ZM1837.81 298H1835.81V300H1837.81V298ZM1837.81 206.48V204.48H1835.81V206.48H1837.81ZM1903.98 206.48H1905.98V204.48H1903.98V206.48ZM1903.98 219.408V221.408H1905.98V219.408H1903.98ZM1853.04 219.408V217.408H1851.04V219.408H1853.04ZM1853.04 246.24H1897.71V242.24H1853.04V246.24ZM1895.71 244.24V257.296H1899.71V244.24H1895.71ZM1897.71 255.296H1853.04V259.296H1897.71V255.296ZM1851.04 257.296V285.072H1855.04V257.296H1851.04ZM1853.04 287.072H1905.26V283.072H1853.04V287.072ZM1903.26 285.072V298H1907.26V285.072H1903.26ZM1905.26 296H1837.81V300H1905.26V296ZM1839.81 298V206.48H1835.81V298H1839.81ZM1837.81 208.48H1903.98V204.48H1837.81V208.48ZM1901.98 206.48V219.408H1905.98V206.48H1901.98ZM1903.98 217.408H1853.04V221.408H1903.98V217.408ZM1851.04 219.408V244.24H1855.04V219.408H1851.04ZM1918.68 298H1916.68V300H1918.68V298ZM1918.68 206.48V204.48H1916.68V206.48H1918.68ZM1935.71 206.48L1937.42 205.451L1936.84 204.48H1935.71V206.48ZM1976.92 275.216L1975.21 276.245L1975.79 277.216H1976.92V275.216ZM1977.18 275.216V277.216H1979.18V275.216H1977.18ZM1977.18 206.48V204.48H1975.18V206.48H1977.18ZM1992.41 206.48H1994.41V204.48H1992.41V206.48ZM1992.41 298V300H1994.41V298H1992.41ZM1975.51 298L1973.8 299.034L1974.39 300H1975.51V298ZM1934.17 229.52L1935.88 228.486L1935.3 227.52H1934.17V229.52ZM1933.92 229.52V227.52H1931.92V229.52H1933.92ZM1933.92 298V300H1935.92V298H1933.92ZM1920.68 298V206.48H1916.68V298H1920.68ZM1918.68 208.48H1935.71V204.48H1918.68V208.48ZM1933.99 207.509L1975.21 276.245L1978.64 274.187L1937.42 205.451L1933.99 207.509ZM1976.92 277.216H1977.18V273.216H1976.92V277.216ZM1979.18 275.216V206.48H1975.18V275.216H1979.18ZM1977.18 208.48H1992.41V204.48H1977.18V208.48ZM1990.41 206.48V298H1994.41V206.48H1990.41ZM1992.41 296H1975.51V300H1992.41V296ZM1977.23 296.966L1935.88 228.486L1932.46 230.554L1973.8 299.034L1977.23 296.966ZM1934.17 227.52H1933.92V231.52H1934.17V227.52ZM1931.92 229.52V298H1935.92V229.52H1931.92ZM1933.92 296H1918.68V300H1933.92V296ZM2030.25 298H2028.25V300H2030.25V298ZM2030.25 219.408H2032.25V217.408H2030.25V219.408ZM2000.94 219.408H1998.94V221.408H2000.94V219.408ZM2000.94 206.48V204.48H1998.94V206.48H2000.94ZM2074.66 206.48H2076.66V204.48H2074.66V206.48ZM2074.66 219.408V221.408H2076.66V219.408H2074.66ZM2045.48 219.408V217.408H2043.48V219.408H2045.48ZM2045.48 298V300H2047.48V298H2045.48ZM2032.25 298V219.408H2028.25V298H2032.25ZM2030.25 217.408H2000.94V221.408H2030.25V217.408ZM2002.94 219.408V206.48H1998.94V219.408H2002.94ZM2000.94 208.48H2074.66V204.48H2000.94V208.48ZM2072.66 206.48V219.408H2076.66V206.48H2072.66ZM2074.66 217.408H2045.48V221.408H2074.66V217.408ZM2043.48 219.408V298H2047.48V219.408H2043.48ZM2045.48 296H2030.25V300H2045.48V296ZM2086.06 206.48V204.48H2084.06V206.48H2086.06ZM2101.29 206.48H2103.29V204.48H2101.29V206.48ZM2101.29 244.368H2099.29V246.368H2101.29V244.368ZM2144.55 244.368V246.368H2146.55V244.368H2144.55ZM2144.55 206.48V204.48H2142.55V206.48H2144.55ZM2159.79 206.48H2161.79V204.48H2159.79V206.48ZM2159.79 298V300H2161.79V298H2159.79ZM2144.55 298H2142.55V300H2144.55V298ZM2144.55 257.424H2146.55V255.424H2144.55V257.424ZM2101.29 257.424V255.424H2099.29V257.424H2101.29ZM2101.29 298V300H2103.29V298H2101.29ZM2086.06 298H2084.06V300H2086.06V298ZM2086.06 208.48H2101.29V204.48H2086.06V208.48ZM2099.29 206.48V244.368H2103.29V206.48H2099.29ZM2101.29 246.368H2144.55V242.368H2101.29V246.368ZM2146.55 244.368V206.48H2142.55V244.368H2146.55ZM2144.55 208.48H2159.79V204.48H2144.55V208.48ZM2157.79 206.48V298H2161.79V206.48H2157.79ZM2159.79 296H2144.55V300H2159.79V296ZM2146.55 298V257.424H2142.55V298H2146.55ZM2144.55 255.424H2101.29V259.424H2144.55V255.424ZM2099.29 257.424V298H2103.29V257.424H2099.29ZM2101.29 296H2086.06V300H2101.29V296ZM2088.06 298V206.48H2084.06V298H2088.06ZM2175.15 206.48V204.48H2173.15V206.48H2175.15ZM2190.39 206.48H2192.39V204.48H2190.39V206.48ZM2232.24 206.48V204.48H2230.24V206.48H2232.24ZM2247.35 206.48H2249.35V204.48H2247.35V206.48ZM2245.35 266.768C2245.35 276.414 2242.78 284.114 2237.44 289.412C2232.1 294.712 2223.66 297.92 2211.25 297.92V301.92C2224.31 301.92 2233.92 298.536 2240.26 292.252C2246.6 285.966 2249.35 277.09 2249.35 266.768H2245.35ZM2211.25 297.92C2198.84 297.92 2190.4 294.712 2185.06 289.412C2179.72 284.114 2177.15 276.414 2177.15 266.768H2173.15C2173.15 277.09 2175.9 285.966 2182.24 292.252C2188.58 298.536 2198.19 301.92 2211.25 301.92V297.92ZM2177.15 266.768V206.48H2173.15V266.768H2177.15ZM2175.15 208.48H2190.39V204.48H2175.15V208.48ZM2188.39 206.48V266.768H2192.39V206.48H2188.39ZM2188.39 266.768C2188.39 273.988 2190.19 279.638 2194.21 283.45C2198.2 287.243 2204.02 288.864 2211.25 288.864V284.864C2204.53 284.864 2199.91 283.349 2196.96 280.549C2194.03 277.77 2192.39 273.372 2192.39 266.768H2188.39ZM2211.25 288.864C2218.54 288.864 2224.39 287.245 2228.4 283.454C2232.43 279.641 2234.24 273.988 2234.24 266.768H2230.24C2230.24 273.372 2228.59 277.767 2225.65 280.546C2222.69 283.347 2218.04 284.864 2211.25 284.864V288.864ZM2234.24 266.768V206.48H2230.24V266.768H2234.24ZM2232.24 208.48H2247.35V204.48H2232.24V208.48ZM2245.35 206.48V266.768H2249.35V206.48H2245.35ZM2298.5 243.472L2298.99 241.534L2298.98 241.532L2298.5 243.472ZM2258.56 267.536V265.536H2256.47L2256.56 267.622L2258.56 267.536ZM2273.79 267.536L2275.79 267.404L2275.66 265.536H2273.79V267.536ZM2291.84 256.4L2291.35 258.34L2291.36 258.341L2291.84 256.4ZM2330.5 233.872V235.872H2332.64L2332.49 233.736L2330.5 233.872ZM2315.26 233.872L2313.28 234.135L2313.51 235.872H2315.26V233.872ZM2298 245.41C2307.89 247.93 2316.11 250.161 2321.92 254.159C2324.77 256.122 2326.99 258.484 2328.52 261.493C2330.05 264.511 2330.93 268.292 2330.93 273.168H2334.93C2334.93 267.804 2333.95 263.377 2332.09 259.687C2330.21 255.988 2327.5 253.142 2324.19 250.865C2317.68 246.383 2308.69 244.006 2298.99 241.534L2298 245.41ZM2330.93 273.168C2330.93 279.937 2328.39 286.052 2323.24 290.502C2318.06 294.972 2310.06 297.92 2298.88 297.92V301.92C2310.74 301.92 2319.76 298.788 2325.85 293.53C2331.96 288.252 2334.93 280.991 2334.93 273.168H2330.93ZM2298.88 297.92C2288.01 297.92 2278.61 295.091 2271.87 289.918C2265.18 284.778 2260.98 277.234 2260.56 267.45L2256.56 267.622C2257.04 278.574 2261.8 287.222 2269.44 293.09C2277.04 298.925 2287.35 301.92 2298.88 301.92V297.92ZM2258.56 269.536H2273.79V265.536H2258.56V269.536ZM2271.8 267.668C2272.21 273.935 2274.58 279.325 2279.21 283.116C2283.81 286.877 2290.4 288.864 2298.88 288.864V284.864C2290.98 284.864 2285.4 283.011 2281.75 280.02C2278.13 277.059 2276.14 272.785 2275.79 267.404L2271.8 267.668ZM2298.88 288.864C2305.93 288.864 2311.13 287.306 2314.62 284.543C2318.16 281.735 2319.7 277.863 2319.7 273.808H2315.7C2315.7 276.793 2314.61 279.449 2312.13 281.409C2309.6 283.414 2305.4 284.864 2298.88 284.864V288.864ZM2319.7 273.808C2319.7 270.85 2319.16 268.316 2317.93 266.143C2316.7 263.963 2314.86 262.316 2312.54 260.972C2308.02 258.364 2301.22 256.668 2292.32 254.459L2291.36 258.341C2300.51 260.612 2306.63 262.18 2310.54 264.436C2312.42 265.524 2313.66 266.709 2314.45 268.113C2315.25 269.524 2315.7 271.326 2315.7 273.808H2319.7ZM2292.33 254.46C2285.17 252.67 2278.04 250.467 2272.71 246.702C2267.5 243.026 2264.02 237.875 2264.02 229.904H2260.02C2260.02 239.341 2264.28 245.646 2270.4 249.97C2276.39 254.205 2284.18 256.546 2291.35 258.34L2292.33 254.46ZM2264.02 229.904C2264.02 222.35 2266.9 216.622 2272 212.725C2277.17 208.775 2284.81 206.56 2294.53 206.56V202.56C2284.27 202.56 2275.66 204.889 2269.57 209.547C2263.4 214.258 2260.02 221.202 2260.02 229.904H2264.02ZM2294.53 206.56C2304.24 206.56 2312.45 209.097 2318.33 213.731C2324.18 218.336 2327.9 225.129 2328.5 234.008L2332.49 233.736C2331.82 223.799 2327.6 215.936 2320.81 210.589C2314.05 205.271 2304.91 202.56 2294.53 202.56V206.56ZM2330.5 231.872H2315.26V235.872H2330.5V231.872ZM2317.25 233.609C2316.49 227.927 2314.3 223.335 2310.37 220.198C2306.47 217.084 2301.14 215.616 2294.53 215.616V219.616C2300.59 219.616 2304.92 220.964 2307.87 223.322C2310.79 225.657 2312.63 229.193 2313.28 234.135L2317.25 233.609ZM2294.53 215.616C2288.88 215.616 2284.11 216.673 2280.68 218.817C2277.17 221.016 2275.12 224.346 2275.12 228.496H2279.12C2279.12 225.862 2280.34 223.752 2282.8 222.207C2285.36 220.607 2289.3 219.616 2294.53 219.616V215.616ZM2275.12 228.496C2275.12 231.289 2275.72 233.654 2276.96 235.651C2278.19 237.638 2279.95 239.11 2282.03 240.273C2286.07 242.533 2291.75 243.846 2298.01 245.412L2298.98 241.532C2292.44 239.898 2287.44 238.715 2283.98 236.783C2282.32 235.85 2281.14 234.802 2280.36 233.545C2279.59 232.298 2279.12 230.695 2279.12 228.496H2275.12ZM2346.06 206.48V204.48H2344.06V206.48H2346.06ZM2361.3 206.48H2363.3V204.48H2361.3V206.48ZM2361.3 298V300H2363.3V298H2361.3ZM2346.06 298H2344.06V300H2346.06V298ZM2346.06 208.48H2361.3V204.48H2346.06V208.48ZM2359.3 206.48V298H2363.3V206.48H2359.3ZM2361.3 296H2346.06V300H2361.3V296ZM2348.06 298V206.48H2344.06V298H2348.06ZM2430.93 276.368L2432.82 275.719L2432.36 274.368H2430.93V276.368ZM2393.56 276.368V274.368H2392.13L2391.66 275.719L2393.56 276.368ZM2386.13 298V300H2387.56L2388.02 298.649L2386.13 298ZM2370.64 298L2368.77 297.31L2367.78 300H2370.64V298ZM2404.31 206.48V204.48H2402.91L2402.43 205.79L2404.31 206.48ZM2420.31 206.48L2422.18 205.792L2421.7 204.48H2420.31V206.48ZM2453.84 298V300H2456.71L2455.72 297.312L2453.84 298ZM2438.36 298L2436.46 298.649L2436.93 300H2438.36V298ZM2397.78 263.696L2395.88 263.062L2395 265.696H2397.78V263.696ZM2426.84 263.696V265.696H2429.6L2428.73 263.067L2426.84 263.696ZM2412.5 220.432L2414.4 219.803L2413.94 218.432H2412.5V220.432ZM2412.24 220.432V218.432H2410.8L2410.35 219.798L2412.24 220.432ZM2430.93 274.368H2393.56V278.368H2430.93V274.368ZM2391.66 275.719L2384.24 297.351L2388.02 298.649L2395.45 277.017L2391.66 275.719ZM2386.13 296H2370.64V300H2386.13V296ZM2372.52 298.69L2406.18 207.17L2402.43 205.79L2368.77 297.31L2372.52 298.69ZM2404.31 208.48H2420.31V204.48H2404.31V208.48ZM2418.43 207.168L2451.97 298.688L2455.72 297.312L2422.18 205.792L2418.43 207.168ZM2453.84 296H2438.36V300H2453.84V296ZM2440.25 297.351L2432.82 275.719L2429.04 277.017L2436.46 298.649L2440.25 297.351ZM2397.78 265.696H2426.84V261.696H2397.78V265.696ZM2428.73 263.067L2414.4 219.803L2410.6 221.061L2424.94 264.325L2428.73 263.067ZM2412.5 218.432H2412.24V222.432H2412.5V218.432ZM2410.35 219.798L2395.88 263.062L2399.68 264.33L2414.14 221.066L2410.35 219.798ZM2476.12 298H2474.12V300H2476.12V298ZM2476.12 219.408H2478.12V217.408H2476.12V219.408ZM2446.81 219.408H2444.81V221.408H2446.81V219.408ZM2446.81 206.48V204.48H2444.81V206.48H2446.81ZM2520.54 206.48H2522.54V204.48H2520.54V206.48ZM2520.54 219.408V221.408H2522.54V219.408H2520.54ZM2491.35 219.408V217.408H2489.35V219.408H2491.35ZM2491.35 298V300H2493.35V298H2491.35ZM2478.12 298V219.408H2474.12V298H2478.12ZM2476.12 217.408H2446.81V221.408H2476.12V217.408ZM2448.81 219.408V206.48H2444.81V219.408H2448.81ZM2446.81 208.48H2520.54V204.48H2446.81V208.48ZM2518.54 206.48V219.408H2522.54V206.48H2518.54ZM2520.54 217.408H2491.35V221.408H2520.54V217.408ZM2489.35 219.408V298H2493.35V219.408H2489.35ZM2491.35 296H2476.12V300H2491.35V296ZM2565 243.472L2565.49 241.534L2565.48 241.532L2565 243.472ZM2525.06 267.536V265.536H2522.97L2523.06 267.622L2525.06 267.536ZM2540.29 267.536L2542.29 267.404L2542.16 265.536H2540.29V267.536ZM2558.34 256.4L2557.85 258.34L2557.86 258.341L2558.34 256.4ZM2597 233.872V235.872H2599.14L2598.99 233.736L2597 233.872ZM2581.76 233.872L2579.78 234.135L2580.01 235.872H2581.76V233.872ZM2564.5 245.41C2574.39 247.93 2582.61 250.161 2588.42 254.159C2591.27 256.122 2593.49 258.484 2595.02 261.493C2596.55 264.511 2597.43 268.292 2597.43 273.168H2601.43C2601.43 267.804 2600.45 263.377 2598.59 259.687C2596.71 255.988 2594 253.142 2590.69 250.865C2584.18 246.383 2575.19 244.006 2565.49 241.534L2564.5 245.41ZM2597.43 273.168C2597.43 279.937 2594.89 286.052 2589.74 290.502C2584.56 294.972 2576.56 297.92 2565.38 297.92V301.92C2577.24 301.92 2586.26 298.788 2592.35 293.53C2598.46 288.252 2601.43 280.991 2601.43 273.168H2597.43ZM2565.38 297.92C2554.51 297.92 2545.11 295.091 2538.37 289.918C2531.68 284.778 2527.48 277.234 2527.06 267.45L2523.06 267.622C2523.54 278.574 2528.3 287.222 2535.94 293.09C2543.54 298.925 2553.85 301.92 2565.38 301.92V297.92ZM2525.06 269.536H2540.29V265.536H2525.06V269.536ZM2538.3 267.668C2538.71 273.935 2541.08 279.325 2545.71 283.116C2550.31 286.877 2556.9 288.864 2565.38 288.864V284.864C2557.48 284.864 2551.9 283.011 2548.25 280.02C2544.63 277.059 2542.64 272.785 2542.29 267.404L2538.3 267.668ZM2565.38 288.864C2572.43 288.864 2577.63 287.306 2581.12 284.543C2584.66 281.735 2586.2 277.863 2586.2 273.808H2582.2C2582.2 276.793 2581.11 279.449 2578.63 281.409C2576.1 283.414 2571.9 284.864 2565.38 284.864V288.864ZM2586.2 273.808C2586.2 270.85 2585.66 268.316 2584.43 266.143C2583.2 263.963 2581.36 262.316 2579.04 260.972C2574.52 258.364 2567.72 256.668 2558.82 254.459L2557.86 258.341C2567.01 260.612 2573.13 262.18 2577.04 264.436C2578.92 265.524 2580.16 266.709 2580.95 268.113C2581.75 269.524 2582.2 271.326 2582.2 273.808H2586.2ZM2558.83 254.46C2551.67 252.67 2544.54 250.467 2539.21 246.702C2534 243.026 2530.52 237.875 2530.52 229.904H2526.52C2526.52 239.341 2530.78 245.646 2536.9 249.97C2542.89 254.205 2550.68 256.546 2557.85 258.34L2558.83 254.46ZM2530.52 229.904C2530.52 222.35 2533.4 216.622 2538.5 212.725C2543.67 208.775 2551.31 206.56 2561.03 206.56V202.56C2550.77 202.56 2542.16 204.889 2536.07 209.547C2529.9 214.258 2526.52 221.202 2526.52 229.904H2530.52ZM2561.03 206.56C2570.74 206.56 2578.95 209.097 2584.83 213.731C2590.68 218.336 2594.4 225.129 2595 234.008L2598.99 233.736C2598.32 223.799 2594.1 215.936 2587.31 210.589C2580.55 205.271 2571.41 202.56 2561.03 202.56V206.56ZM2597 231.872H2581.76V235.872H2597V231.872ZM2583.75 233.609C2582.99 227.927 2580.8 223.335 2576.87 220.198C2572.97 217.084 2567.64 215.616 2561.03 215.616V219.616C2567.09 219.616 2571.42 220.964 2574.37 223.322C2577.29 225.657 2579.13 229.193 2579.78 234.135L2583.75 233.609ZM2561.03 215.616C2555.38 215.616 2550.61 216.673 2547.18 218.817C2543.67 221.016 2541.62 224.346 2541.62 228.496H2545.62C2545.62 225.862 2546.84 223.752 2549.3 222.207C2551.86 220.607 2555.8 219.616 2561.03 219.616V215.616ZM2541.62 228.496C2541.62 231.289 2542.22 233.654 2543.46 235.651C2544.69 237.638 2546.45 239.11 2548.53 240.273C2552.57 242.533 2558.25 243.846 2564.51 245.412L2565.48 241.532C2558.94 239.898 2553.94 238.715 2550.48 236.783C2548.82 235.85 2547.64 234.802 2546.86 233.545C2546.09 232.298 2545.62 230.695 2545.62 228.496H2541.62Z" fill="#F5F5F5"/>
<path d="M23.04 423.032H21.04V425.032H23.04V423.032ZM62.592 423.032H64.592V421.032H62.592V423.032ZM62.592 436.088V438.088H64.592V436.088H62.592ZM23.04 436.088V434.088H21.04V436.088H23.04ZM23.04 475V477H25.04V475H23.04ZM7.808 475H5.808V477H7.808V475ZM7.808 383.48V381.48H5.808V383.48H7.808ZM71.808 383.48H73.808V381.48H71.808V383.48ZM71.808 396.408V398.408H73.808V396.408H71.808ZM23.04 396.408V394.408H21.04V396.408H23.04ZM23.04 425.032H62.592V421.032H23.04V425.032ZM60.592 423.032V436.088H64.592V423.032H60.592ZM62.592 434.088H23.04V438.088H62.592V434.088ZM21.04 436.088V475H25.04V436.088H21.04ZM23.04 473H7.808V477H23.04V473ZM9.808 475V383.48H5.808V475H9.808ZM7.808 385.48H71.808V381.48H7.808V385.48ZM69.808 383.48V396.408H73.808V383.48H69.808ZM71.808 394.408H23.04V398.408H71.808V394.408ZM21.04 396.408V423.032H25.04V396.408H21.04ZM83.808 475H81.808V477H83.808V475ZM83.808 383.48V381.48H81.808V383.48H83.808ZM136.8 432.504L136.326 430.561L134.8 430.933V432.504H136.8ZM136.8 432.76H134.8V434.419L136.431 434.726L136.8 432.76ZM155.104 474.104H157.104V472.638L155.706 472.197L155.104 474.104ZM155.104 475V477H157.104V475H155.104ZM139.104 475L137.759 476.48L138.331 477H139.104V475ZM99.04 439.672V437.672H97.04V439.672H99.04ZM99.04 475V477H101.04V475H99.04ZM99.04 396.408V394.408H97.04V396.408H99.04ZM99.04 426.616H97.04V428.616H99.04V426.616ZM85.808 475V383.48H81.808V475H85.808ZM83.808 385.48H122.848V381.48H83.808V385.48ZM122.848 385.48C131.938 385.48 139.181 387.8 144.114 391.898C149 395.958 151.824 401.928 151.824 409.72H155.824C155.824 400.872 152.568 393.722 146.67 388.822C140.819 383.96 132.574 381.48 122.848 381.48V385.48ZM151.824 409.72C151.824 415.776 150.285 420.37 147.671 423.722C145.057 427.074 141.229 429.365 136.326 430.561L137.274 434.447C142.867 433.083 147.551 430.382 150.825 426.182C154.1 421.982 155.824 416.464 155.824 409.72H151.824ZM134.8 432.504V432.76H138.8V432.504H134.8ZM136.431 434.726C141.058 435.595 144.083 438.169 146.164 441.694C148.289 445.297 149.416 449.886 150.067 454.617C150.721 459.371 150.864 463.944 151.169 467.715C151.316 469.537 151.507 471.234 151.852 472.555C152.025 473.216 152.265 473.897 152.63 474.486C153.001 475.083 153.593 475.724 154.502 476.011L155.706 472.197C156.007 472.292 156.089 472.473 156.028 472.375C155.961 472.267 155.846 472.017 155.722 471.543C155.474 470.595 155.302 469.209 155.156 467.393C154.872 463.888 154.703 458.965 154.029 454.071C153.352 449.154 152.135 443.943 149.609 439.662C147.037 435.303 143.102 431.909 137.169 430.794L136.431 434.726ZM153.104 474.104V475H157.104V474.104H153.104ZM155.104 473H139.104V477H155.104V473ZM140.449 473.52C140.464 473.534 140.214 473.24 140.006 472.038C139.818 470.954 139.723 469.527 139.657 467.783C139.526 464.388 139.511 459.929 138.926 455.626C138.341 451.328 137.154 446.849 134.469 443.419C131.695 439.876 127.496 437.672 121.44 437.672V441.672C126.392 441.672 129.377 443.404 131.319 445.885C133.35 448.479 134.411 452.112 134.962 456.166C135.513 460.215 135.522 464.348 135.659 467.937C135.727 469.685 135.827 471.348 136.065 472.721C136.282 473.976 136.688 475.506 137.759 476.48L140.449 473.52ZM121.44 437.672H99.04V441.672H121.44V437.672ZM97.04 439.672V475H101.04V439.672H97.04ZM99.04 473H83.808V477H99.04V473ZM97.04 396.408V426.616H101.04V396.408H97.04ZM99.04 428.616H119.648V424.616H99.04V428.616ZM119.648 428.616C124.357 428.616 129.602 428.185 133.7 425.781C138.018 423.248 140.72 418.745 140.72 411.512H136.72C136.72 417.591 134.558 420.64 131.676 422.331C128.574 424.151 124.283 424.616 119.648 424.616V428.616ZM140.72 411.512C140.72 404.336 138.014 399.841 133.706 397.294C129.611 394.874 124.369 394.408 119.648 394.408V398.408C124.271 398.408 128.565 398.902 131.67 400.738C134.562 402.447 136.72 405.504 136.72 411.512H140.72ZM119.648 394.408H99.04V398.408H119.648V394.408ZM182.54 421.24H180.54V423.24H182.54V421.24ZM227.212 421.24H229.212V419.24H227.212V421.24ZM227.212 434.296V436.296H229.212V434.296H227.212ZM182.54 434.296V432.296H180.54V434.296H182.54ZM182.54 462.072H180.54V464.072H182.54V462.072ZM234.764 462.072H236.764V460.072H234.764V462.072ZM234.764 475V477H236.764V475H234.764ZM167.308 475H165.308V477H167.308V475ZM167.308 383.48V381.48H165.308V383.48H167.308ZM233.484 383.48H235.484V381.48H233.484V383.48ZM233.484 396.408V398.408H235.484V396.408H233.484ZM182.54 396.408V394.408H180.54V396.408H182.54ZM182.54 423.24H227.212V419.24H182.54V423.24ZM225.212 421.24V434.296H229.212V421.24H225.212ZM227.212 432.296H182.54V436.296H227.212V432.296ZM180.54 434.296V462.072H184.54V434.296H180.54ZM182.54 464.072H234.764V460.072H182.54V464.072ZM232.764 462.072V475H236.764V462.072H232.764ZM234.764 473H167.308V477H234.764V473ZM169.308 475V383.48H165.308V475H169.308ZM167.308 385.48H233.484V381.48H167.308V385.48ZM231.484 383.48V396.408H235.484V383.48H231.484ZM233.484 394.408H182.54V398.408H233.484V394.408ZM180.54 396.408V421.24H184.54V396.408H180.54ZM263.415 421.24H261.415V423.24H263.415V421.24ZM308.087 421.24H310.087V419.24H308.087V421.24ZM308.087 434.296V436.296H310.087V434.296H308.087ZM263.415 434.296V432.296H261.415V434.296H263.415ZM263.415 462.072H261.415V464.072H263.415V462.072ZM315.639 462.072H317.639V460.072H315.639V462.072ZM315.639 475V477H317.639V475H315.639ZM248.183 475H246.183V477H248.183V475ZM248.183 383.48V381.48H246.183V383.48H248.183ZM314.359 383.48H316.359V381.48H314.359V383.48ZM314.359 396.408V398.408H316.359V396.408H314.359ZM263.415 396.408V394.408H261.415V396.408H263.415ZM263.415 423.24H308.087V419.24H263.415V423.24ZM306.087 421.24V434.296H310.087V421.24H306.087ZM308.087 432.296H263.415V436.296H308.087V432.296ZM261.415 434.296V462.072H265.415V434.296H261.415ZM263.415 464.072H315.639V460.072H263.415V464.072ZM313.639 462.072V475H317.639V462.072H313.639ZM315.639 473H248.183V477H315.639V473ZM250.183 475V383.48H246.183V475H250.183ZM248.183 385.48H314.359V381.48H248.183V385.48ZM312.359 383.48V396.408H316.359V383.48H312.359ZM314.359 394.408H263.415V398.408H314.359V394.408ZM261.415 396.408V421.24H265.415V396.408H261.415ZM329.058 475H327.058V477H329.058V475ZM329.058 383.48V381.48H327.058V383.48H329.058ZM344.29 396.408V394.408H342.29V396.408H344.29ZM344.29 462.072H342.29V464.072H344.29V462.072ZM331.058 475V383.48H327.058V475H331.058ZM329.058 385.48H364.642V381.48H329.058V385.48ZM364.642 385.48C376.8 385.48 386.392 389.415 392.966 396.693C399.564 403.997 403.346 414.918 403.346 429.304H407.346C407.346 414.25 403.384 402.259 395.934 394.011C388.46 385.737 377.7 381.48 364.642 381.48V385.48ZM403.346 429.304C403.346 443.706 399.683 454.594 393.198 461.86C386.742 469.094 377.254 473 365.026 473V477C378.142 477 388.814 472.778 396.182 464.524C403.521 456.302 407.346 444.342 407.346 429.304H403.346ZM365.026 473H329.058V477H365.026V473ZM342.29 396.408V462.072H346.29V396.408H342.29ZM344.29 464.072H363.874V460.072H344.29V464.072ZM363.874 464.072C374.691 464.072 381.919 460.002 386.338 453.373C390.66 446.89 392.114 438.227 392.114 429.304H388.114C388.114 437.917 386.688 445.638 383.01 451.155C379.429 456.526 373.537 460.072 363.874 460.072V464.072ZM392.114 429.304C392.114 420.381 390.66 411.688 386.341 405.175C381.925 398.515 374.697 394.408 363.874 394.408V398.408C373.531 398.408 379.423 401.981 383.007 407.385C386.688 412.936 388.114 420.691 388.114 429.304H392.114ZM363.874 394.408H344.29V398.408H363.874V394.408ZM460.03 474.92C446.722 474.92 436.041 470.068 428.673 462.018C421.288 453.949 417.102 442.521 417.102 429.176H413.102C413.102 443.351 417.556 455.795 425.723 464.718C433.907 473.66 445.69 478.92 460.03 478.92V474.92ZM417.102 429.176C417.102 415.831 421.288 404.437 428.671 396.401C436.037 388.383 446.718 383.56 460.03 383.56V379.56C445.694 379.56 433.911 384.785 425.725 393.695C417.556 402.587 413.102 415.001 413.102 429.176H417.102ZM460.03 383.56C473.276 383.56 483.959 388.382 491.343 396.403C498.742 404.441 502.958 415.835 502.958 429.176H506.958C506.958 414.997 502.47 402.583 494.285 393.693C486.085 384.786 474.304 379.56 460.03 379.56V383.56ZM502.958 429.176C502.958 442.517 498.742 453.945 491.34 462.016C483.955 470.069 473.272 474.92 460.03 474.92V478.92C474.308 478.92 486.089 473.659 494.288 464.72C502.47 455.799 506.958 443.355 506.958 429.176H502.958ZM460.03 465.864C471.105 465.864 479.14 461.575 484.346 454.686C489.491 447.877 491.726 438.731 491.726 429.176H487.726C487.726 438.181 485.609 446.379 481.154 452.274C476.76 458.089 469.947 461.864 460.03 461.864V465.864ZM491.726 429.176C491.726 419.683 489.489 410.568 484.344 403.776C479.139 396.905 471.105 392.616 460.03 392.616V396.616C469.947 396.616 476.761 400.391 481.156 406.192C485.611 412.072 487.726 420.237 487.726 429.176H491.726ZM460.03 392.616C448.956 392.616 440.893 396.904 435.656 403.771C430.477 410.562 428.206 419.677 428.206 429.176H432.206C432.206 420.243 434.351 412.078 438.836 406.197C443.263 400.392 450.112 396.616 460.03 396.616V392.616ZM428.206 429.176C428.206 438.737 430.476 447.884 435.654 454.691C440.892 461.576 448.956 465.864 460.03 465.864V461.864C450.112 461.864 443.264 458.088 438.838 452.269C434.352 446.372 432.206 438.175 432.206 429.176H428.206ZM518.058 475H516.058V477H518.058V475ZM518.058 383.48V381.48H516.058V383.48H518.058ZM537.77 383.48L539.65 382.797L539.171 381.48H537.77V383.48ZM563.37 453.88L561.49 454.563L561.969 455.88H563.37V453.88ZM563.626 453.88V455.88H565.029L565.507 454.56L563.626 453.88ZM589.098 383.48V381.48H587.695L587.217 382.8L589.098 383.48ZM608.81 383.48H610.81V381.48H608.81V383.48ZM608.81 475V477H610.81V475H608.81ZM593.962 475H591.962V477H593.962V475ZM593.962 405.624H595.962V403.624H593.962V405.624ZM593.706 405.624V403.624H592.285L591.818 404.965L593.706 405.624ZM569.514 475V477H570.935L571.402 475.659L569.514 475ZM557.354 475L555.466 475.659L555.933 477H557.354V475ZM533.162 405.624L535.05 404.965L534.583 403.624H533.162V405.624ZM532.906 405.624V403.624H530.906V405.624H532.906ZM532.906 475V477H534.906V475H532.906ZM520.058 475V383.48H516.058V475H520.058ZM518.058 385.48H537.77V381.48H518.058V385.48ZM535.89 384.163L561.49 454.563L565.25 453.197L539.65 382.797L535.89 384.163ZM563.37 455.88H563.626V451.88H563.37V455.88ZM565.507 454.56L590.979 384.16L587.217 382.8L561.745 453.2L565.507 454.56ZM589.098 385.48H608.81V381.48H589.098V385.48ZM606.81 383.48V475H610.81V383.48H606.81ZM608.81 473H593.962V477H608.81V473ZM595.962 475V405.624H591.962V475H595.962ZM593.962 403.624H593.706V407.624H593.962V403.624ZM591.818 404.965L567.626 474.341L571.402 475.659L595.594 406.283L591.818 404.965ZM569.514 473H557.354V477H569.514V473ZM559.242 474.341L535.05 404.965L531.274 406.283L555.466 475.659L559.242 474.341ZM533.162 403.624H532.906V407.624H533.162V403.624ZM530.906 405.624V475H534.906V405.624H530.906ZM532.906 473H518.058V477H532.906V473Z" fill="#F5F5F5"/>
</svg>
