<svg width="203" height="98" viewBox="0 0 203 98" fill="none" xmlns="http://www.w3.org/2000/svg">
<g clip-path="url(#clip0_25_198)">
<path d="M31.4365 98C28.7476 96.7075 28.1504 94.1761 27.879 91.4477C26.9848 82.5043 29.91 74.5528 34.1254 67.1155C37.6478 60.9006 41.7323 55.0329 45.5102 48.9682C45.8103 48.4873 45.8934 47.589 45.673 47.0714C44.6 44.5533 39.9695 42.2457 37.5552 43.1306C36.7728 43.4179 36.2044 44.4464 35.6199 45.2045C34.0168 47.2784 32.1422 48.8547 29.4406 48.6543C28.7508 48.6042 27.7384 48.1467 27.5213 47.5957C27.2626 46.9411 27.467 45.8157 27.8853 45.1945C29.316 43.0705 31.4876 41.9251 33.7965 41.2538C35.2016 40.8464 36.0064 40.125 36.4311 38.7324C37.4402 35.4095 38.5452 32.1167 39.4841 28.7738C39.9918 26.9604 39.4394 26.4995 37.5999 26.7266C36.4439 26.8702 35.1601 27.1808 34.1318 26.8135C32.733 26.3159 31.5259 25.2439 30.0345 24.2921C27.9588 26.9704 25.6148 30.0695 23.1941 33.0985C19.9016 37.2229 16.4367 41.2037 13.2496 45.4149C9.93797 49.7898 6.86584 54.3617 3.7043 58.8601C3.20611 59.5714 2.75264 60.3261 2.35984 61.1076C1.84888 62.1228 0.996225 62.3533 0.277692 61.7388C-0.0640103 61.4482 -0.0991386 60.2193 0.201049 59.7451C2.74306 55.7342 5.18607 51.6199 8.0634 47.8762C13.9618 40.2018 20.1252 32.7512 26.1449 25.1771C27.5628 23.3937 28.8434 21.4902 30.1687 19.6267C30.3858 19.3228 30.5679 18.9521 30.6509 18.5847C32.1071 12.0291 35.786 6.76929 39.7555 1.70649C40.4804 0.781423 41.563 -0.424166 42.8532 0.377334C44.2455 1.24229 43.5813 2.67163 42.9713 3.77703C41.1766 7.03312 39.3499 10.2692 37.4338 13.4485C36.2235 15.4589 34.8344 17.3524 33.5186 19.2961C32.5798 20.682 32.6372 22.2149 33.3654 23.5473C34.0104 24.7229 35.2782 24.4023 36.4087 24.2186C41.1702 23.4438 42.9107 25.4409 41.7259 30.3534C41.3267 32.0132 40.7774 33.6329 40.2697 35.2626C39.7619 36.889 39.2254 38.5053 38.6378 40.3187C42.2656 40.9866 45.8774 41.7314 47.621 45.0542C49.2178 43.6349 50.9167 42.2523 52.4688 40.7028C54.0783 39.0964 55.5377 37.3298 57.0706 35.6366C57.2143 35.4763 57.3771 35.2626 57.5592 35.2225C58.5971 34.9921 59.6477 34.8084 60.692 34.608C60.791 35.65 61.155 36.7587 60.9347 37.7205C60.4908 39.6441 59.718 41.4809 59.1016 43.3611C58.8238 44.2127 58.5971 45.081 58.2681 46.2264C59.6094 45.4917 60.6057 44.9106 61.6372 44.393C63.0488 43.685 64.3932 43.6383 65.9037 44.393C66.5744 44.727 67.8294 44.4698 68.5032 43.9956C71.8851 41.6245 75.1648 39.0998 78.4701 36.6118C79.2397 36.0307 79.904 35.2593 80.7375 34.8151C81.1686 34.5847 82.1426 34.6715 82.3566 34.9921C82.6216 35.3928 82.5992 36.4882 82.2895 36.752C77.94 40.4356 73.7533 44.403 68.5799 46.8109C67.5196 47.3018 66.0634 46.8309 64.7892 46.8543C63.8982 46.871 62.937 46.7708 62.1354 47.0814C61.1614 47.4587 60.3854 48.4005 59.4082 48.7445C58.4949 49.0684 57.2047 49.3256 56.5117 48.8781C55.9305 48.504 55.6175 46.9979 55.7964 46.1296C56.2498 43.9255 57.045 41.8015 57.7029 39.6441C57.7604 39.4571 57.7955 39.2601 57.5145 38.8059C56.4989 39.9447 55.477 41.0735 54.4711 42.2223C52.935 43.9789 51.3574 45.7055 49.9236 47.5489C49.5339 48.0499 49.3232 49.0117 49.4924 49.6228C51.3862 56.4355 51.0093 63.2416 49.4924 70.0243C48.0458 76.4931 45.5325 82.521 42.1251 88.1282C39.6374 92.2225 36.8207 95.9728 32.3977 97.9866H31.4397L31.4365 98ZM47.2219 51.1824C45.8742 53.0024 44.6447 54.4886 43.6005 56.1049C38.9508 63.3218 34.4735 70.6455 31.7047 78.931C30.1878 83.4728 29.8749 88.1449 30.6062 92.8737C30.9734 95.2481 31.8836 95.6723 33.7071 94.2262C37.4594 91.2473 39.9375 87.1864 42.1027 82.895C45.3473 76.4597 47.5412 69.677 48.1607 62.3967C48.4705 58.7432 48.2853 55.1331 47.2219 51.1824Z" fill="#F5F5F5"/>
<path d="M138.801 41.9953C135.908 42.5764 133.143 43.2443 130.345 43.6617C127.803 44.0424 125.549 43.0673 123.521 41.4843C123.268 41.2873 123.013 41.0869 122.735 40.9233C120.809 39.7978 120.503 39.9314 119.005 41.6246C117.245 43.6083 115.569 45.7857 113.471 47.2985C111.765 48.5275 109.53 49.0518 107.457 49.5828C106.1 49.9301 104.631 49.5561 103.884 48.0666C103.162 46.6239 103.427 45.1478 104.213 43.802C107.202 38.6858 111.695 36.4816 117.297 36.7321C118.705 36.7955 119.513 36.4716 119.938 35.0823C120.436 33.4526 121.014 31.8496 121.496 30.2166C122.256 27.6451 121.167 25.628 119.487 23.9515C118.267 22.7359 116.865 21.704 115.479 20.6887C110.811 17.2724 110.475 13.6088 114.253 9.15718C115.527 7.65437 116.409 5.77418 117.376 4.01088C117.97 2.92886 117.389 2.32106 116.361 2.54815C114.352 2.98897 112.283 3.37636 110.418 4.2146C104.986 6.66251 100.112 10.0956 95.5809 14.0563C94.8751 14.6742 94.0512 15.4356 93.2624 14.4037C92.5694 13.4953 93.1155 12.6771 93.9171 12.0125C99.5855 7.32041 105.423 2.92886 112.43 0.641248C113.675 0.233819 115.023 0.0267647 116.326 -0.00329148C119.548 -0.0767623 121.033 2.22087 119.637 5.29328C118.785 7.17347 117.517 8.8466 116.418 10.6032C116.131 11.0641 115.751 11.4615 115.454 11.9157C113.551 14.8545 113.71 15.8664 116.364 17.987C117.792 19.1292 119.254 20.2312 120.634 21.4335C124.466 24.7797 124.923 28.9676 123.265 33.6196C122.809 34.902 122.25 36.1443 121.758 37.3499C123.307 38.3117 124.792 39.2468 126.289 40.1585C128.19 41.314 130.272 41.4776 132.312 40.9199C134.663 40.2787 137.103 39.6509 139.197 38.4319C140.657 37.5837 141.727 35.8538 142.749 34.3543C148.024 26.6065 155.142 21.4201 163.462 17.8835C164.238 17.5529 165.093 17.3291 165.927 17.259C167.747 17.102 168.827 18.7318 167.766 20.2713C166.543 22.0513 165.122 23.7946 163.471 25.1137C158.646 28.9709 153.696 32.6611 148.72 36.308C147.037 37.5403 145.141 38.4587 143.327 39.4939C141.193 40.7129 141.11 42.927 141.161 44.9708C141.209 46.851 142.238 48.2637 144.055 49.1052C147.794 50.8385 151.649 50.4945 155.487 49.9902C163.637 48.9216 171.289 45.8926 179.074 43.3545C185.231 41.3474 191.545 39.8546 197.817 38.2483C199.027 37.9377 200.372 38.0412 201.63 38.1915C202.122 38.2516 202.543 38.9663 203 39.3804C202.55 39.8012 202.109 40.5793 201.652 40.5893C194.86 40.7262 188.537 43.0305 182.166 45.1078C173.729 47.8596 165.448 51.2259 156.621 52.4782C152.722 53.0326 148.771 53.4467 144.923 52.2378C139.728 50.6014 138.223 47.8095 138.728 42.8202C138.76 42.4996 138.785 42.1756 138.801 41.9819V41.9953ZM163.966 20.8858C158.652 22.2316 147.555 30.3368 146.038 34.8553C152.722 31.0047 158.499 26.169 163.966 20.8858ZM117.348 39.5941C113.908 38.3818 107.384 41.8383 106.218 45.5686C105.851 46.7475 106.26 47.1449 107.489 47.008C112.139 46.4903 114.656 43.0406 117.351 39.5941H117.348Z" fill="#F5F5F5"/>
<path d="M86.3262 41.4843C87.2714 38.6022 88.0059 35.9506 89.0087 33.4192C90.1392 30.5605 91.4453 27.7719 92.8345 25.0435C93.1283 24.4691 94.1151 24.2787 94.7825 23.9114C94.8751 24.6461 95.252 25.501 95.0156 26.0921C93.4413 30.0662 91.7008 33.9669 90.1009 37.9309C89.6346 39.0864 89.5516 40.4089 89.1045 41.5744C88.9257 42.0386 88.2359 42.5429 87.7664 42.5563C87.3385 42.5696 86.8946 41.9418 86.3262 41.4909V41.4843Z" fill="#F5F5F5"/>
<path d="M24.7087 86.0532C32.8953 84.5074 68.2557 48.9808 182.247 64.4427" stroke="#F5F5F5" stroke-width="2.75" stroke-linecap="round"/>
</g>
<defs>
<clipPath id="clip0_25_198">
<rect width="203" height="98" fill="white"/>
</clipPath>
</defs>
</svg>
