<svg width="161" height="34" viewBox="0 0 161 34" fill="none" xmlns="http://www.w3.org/2000/svg">
<g clip-path="url(#clip0_14_319)">
<path fill-rule="evenodd" clip-rule="evenodd" d="M17.2919 34C26.9261 33.9985 34.6994 26.4548 34.7263 17.0806C34.7532 7.67078 27.0386 0.0403057 17.4566 6.69356e-06C7.9269 -0.0402924 0.0364325 7.57158 5.23271e-06 16.8419C-0.0364221 26.275 7.74952 34.0016 17.2919 34ZM26.6046 16.3893C26.8073 21.7181 22.9619 25.8456 17.6007 26.0564V26.058C12.6561 26.2517 8.32127 22.2854 8.11537 17.3782C7.90156 12.2804 11.9672 8.10012 17.303 7.92962C22.0385 7.77772 26.4288 11.7704 26.6046 16.3893ZM37.9984 30.8412C38.0491 29.0866 36.5398 27.5661 34.7279 27.5444C32.9018 27.5227 31.4019 28.9797 31.4019 30.7745C31.4019 32.5198 32.8495 33.9504 34.6645 33.9985C36.413 34.045 37.9477 32.5911 37.9984 30.8412Z" fill="#FF5500"/>
</g>
<path d="M50.0469 8.84H54.3669L56.5749 20.48H56.6229L59.2869 8.84H63.3669L66.0309 20.48H66.0789L68.2869 8.84H72.6069L68.2389 26H63.9189L61.3509 15.296H61.3029L58.7349 26H54.4149L50.0469 8.84ZM75.8172 8.84H80.1372V26H75.8172V8.84ZM84.4963 26V8.84H88.8163L94.8163 19.04H94.8643V8.84H99.1843V26H94.8643L88.8643 15.8H88.8163V26H84.4963ZM103.535 8.84H107.855V15.8L113.831 8.84H118.871L112.343 16.4L119.111 26H114.071L109.583 19.496L107.855 21.464V26H103.535V8.84ZM128.348 26V8.84H132.668L138.668 19.04H138.716V8.84H143.036V26H138.716L132.716 15.8H132.668V26H128.348ZM151.259 26V12.368H146.267V8.84H160.547V12.368H155.579V26H151.259Z" fill="#F5F5F5"/>
<defs>
<clipPath id="clip0_14_319">
<rect width="38" height="34" fill="white"/>
</clipPath>
</defs>
</svg>
